<svg xmlns="http://www.w3.org/2000/svg" viewBox="0 0 500 500"><g id="freepik--background-complete--inject-96"><rect x="356.72" y="289.27" width="93.1" height="175.99" style="fill:#e0e0e0"></rect><rect x="329.09" y="289.27" width="93.1" height="175.99" style="fill:#f5f5f5"></rect><path d="M415.34,325.5H335.43V297.6h79.91Zm-78.93-1h77.95V298.58H336.41Z" style="fill:#e0e0e0"></path><path d="M360.76,298.09h30.33a0,0,0,0,1,0,0v.61a4.95,4.95,0,0,1-4.95,4.95H365.71a4.95,4.95,0,0,1-4.95-4.95v-.61A0,0,0,0,1,360.76,298.09Z" style="fill:#ebebeb"></path><path d="M415.34,360.94H335.43V333h79.91Zm-78.93-1h77.95V334H336.41Z" style="fill:#e0e0e0"></path><path d="M360.76,333.53h30.33a0,0,0,0,1,0,0v.61a4.95,4.95,0,0,1-4.95,4.95H365.71a4.95,4.95,0,0,1-4.95-4.95v-.61A0,0,0,0,1,360.76,333.53Z" style="fill:#ebebeb"></path><path d="M415.34,396.37H335.43V368.48h79.91Zm-78.93-1h77.95V369.46H336.41Z" style="fill:#e0e0e0"></path><path d="M360.76,369h30.33a0,0,0,0,1,0,0v.61a4.95,4.95,0,0,1-4.95,4.95H365.71a4.95,4.95,0,0,1-4.95-4.95V369A0,0,0,0,1,360.76,369Z" style="fill:#ebebeb"></path><path d="M415.34,431.81H335.43v-27.9h79.91Zm-78.93-1h77.95V404.89H336.41Z" style="fill:#e0e0e0"></path><path d="M360.76,404.4h30.33a0,0,0,0,1,0,0V405a4.95,4.95,0,0,1-4.95,4.95H365.71a4.95,4.95,0,0,1-4.95-4.95v-.61A0,0,0,0,1,360.76,404.4Z" style="fill:#ebebeb"></path><rect x="324.96" y="282.69" width="101.13" height="8.77" style="fill:#ebebeb"></rect><rect x="426.09" y="282.69" width="30.41" height="8.77" style="fill:#e0e0e0"></rect><rect x="329.09" y="465.27" width="4.89" height="8.99" style="fill:#e0e0e0"></rect><rect x="359.32" y="465.27" width="4.89" height="8.99" style="fill:#e0e0e0"></rect><rect x="414.54" y="465.27" width="4.89" height="8.99" style="fill:#e0e0e0"></rect><rect x="442.15" y="465.27" width="4.89" height="8.99" style="fill:#e0e0e0"></rect><polygon points="406.95 259.28 416.38 283.39 410.52 283.37 405.82 268.55 406.95 259.28" style="fill:#e0e0e0"></polygon><polygon points="374.77 237.01 371.53 283.2 404.97 283.9 408.74 237.01 374.77 237.01" style="fill:#ebebeb"></polygon><polygon points="378.12 240.73 375.42 279.18 400.28 280.34 403.75 240.5 378.12 240.73" style="fill:#fafafa"></polygon><polygon points="383.57 246.16 381.55 273.19 395.27 273.19 397.69 246.16 383.57 246.16" style="fill:#e0e0e0"></polygon><path d="M78.1,375.47A35.18,35.18,0,0,0,63,370.29c-2.46-.25-5.14-.18-7.12,1.31a1.43,1.43,0,0,0-.73,1.3,1.63,1.63,0,0,0,.69.89c6.13,4.67,15.4,5.26,22.22,1.68" style="fill:#e0e0e0"></path><path d="M77.71,375A73.9,73.9,0,0,1,68,366.49a24.66,24.66,0,0,1-6.1-11.28,4.56,4.56,0,0,1,.48-3.77c7.76,6.05,13.85,13.88,15.34,23.6" style="fill:#e0e0e0"></path><path d="M78,375.41a35.35,35.35,0,0,1,.18-12.77A17.26,17.26,0,0,1,85,352.11c1.34,3.13.77,6.74-.18,10a48.64,48.64,0,0,1-6.74,14.2" style="fill:#e0e0e0"></path><path d="M85.62,389c-4.61.56-8.63,3-12.08,6.11A22.83,22.83,0,0,0,66.64,407c4.52-.28,8.36-3.47,11.15-7.05s4.71-7.5,7.77-10.85" style="fill:#e0e0e0"></path><path d="M87.27,391.21A29.76,29.76,0,0,1,90.71,363c2.63,9.34,1.66,19.9-3.44,28.17" style="fill:#e0e0e0"></path><path d="M97.31,403.16A21.52,21.52,0,0,0,76.72,415a1.58,1.58,0,0,0-.14,1.61A1.53,1.53,0,0,0,78,417c4-.26,7.65-2.7,10.62-5.48s5.55-6,8.83-8.4" style="fill:#e0e0e0"></path><path d="M97,402.51a38.35,38.35,0,0,1-.38-21.42c.75-2.76,2-5.66,4.57-6.95a.89.89,0,0,1,.7-.13.93.93,0,0,1,.44.51,12.94,12.94,0,0,1,1.08,6.15,38.49,38.49,0,0,1-1,6.22c-.81,3.81-1.23,7.89-3.32,11.17a25.18,25.18,0,0,0-1.33,2.45c-.39.84-.39,1.13-.76,1.79" style="fill:#e0e0e0"></path><path d="M123.57,406.47c-2-7.49.12-16.57,4.84-22.71.35-.45.81-.94,1.38-.88.87.08,1.09,1.24,1.05,2.11a41,41,0,0,1-7.27,21.48" style="fill:#e0e0e0"></path><path d="M126,408.11c9.1,2.37,19.54.07,27.1-5.51a21.84,21.84,0,0,0-14.67-1.8c-4.9,1.12-9.38,3.31-12.43,7.31" style="fill:#e0e0e0"></path><path d="M128,403.12c5.09-8.31,14.86-13.73,24.6-14.22-1.12,4-4.38,7-8.05,8.89s-7.77,2.67-11.81,3.46c-1.57.3-3.72.64-4.74,1.87" style="fill:#e0e0e0"></path><path d="M124.08,378.92a71.59,71.59,0,0,0,3.14-14.41c.38-4.91-.32-10-2.87-14.25-4.76,9.21-5.24,20-.42,29.16" style="fill:#e0e0e0"></path><path d="M140.1,370.82c5.57-10.12,16.93-18.2,28.42-19.33-4.43,11-16.52,19.57-28.42,19.33" style="fill:#e0e0e0"></path><path d="M136.6,372.8c8.3,1.27,15.38,6.57,23.14,9.79a10.49,10.49,0,0,0,5.23,1,4.1,4.1,0,0,0,2.56-7.25,11.16,11.16,0,0,0-3.8-2.3c-8.45-3.52-17.51-3.61-26.41-1.47" style="fill:#e0e0e0"></path><path d="M131.8,378.63c1.88.54,2.52,1.51,4,2.78a43.25,43.25,0,0,0,17.54,9c.67.17,1.55.23,1.88-.37s-.07-1.17-.45-1.64a24.14,24.14,0,0,0-10.59-7.2c-4.05-1.5-7.56-3.32-12.39-2.93" style="fill:#e0e0e0"></path><path d="M126.37,343.46a33.26,33.26,0,0,0,25.46,8.66,1.74,1.74,0,0,0,1.16-.42c.64-.7-.13-1.77-.88-2.35-7.48-5.84-16.54-8.26-25.74-5.89" style="fill:#e0e0e0"></path><path d="M132.8,341.1a35.5,35.5,0,0,1,31.77-5.24,25.23,25.23,0,0,1-15.14,6.65,47.86,47.86,0,0,1-16.63-1.41" style="fill:#e0e0e0"></path><path d="M130.25,324.94c-.74-7.47-.26-13.37-.78-20.87,0-.6-.17-1.32-.73-1.54-.78-.3-1.43.66-1.69,1.46a23.92,23.92,0,0,0,3.19,20.79" style="fill:#e0e0e0"></path><path d="M129.71,325.77a44.17,44.17,0,0,0,12.38-12c2.44-3.34,4.5-7.35,3.94-11.46a11.86,11.86,0,0,0-8.92,4.44,24.82,24.82,0,0,0-4.55,9.15c-1,3.29-1.69,6.67-2.85,9.9" style="fill:#e0e0e0"></path><path d="M141.87,322.39a99.65,99.65,0,0,0,30.45-18c-3.64-1.46-7.8-.59-11.44.88-8.31,3.36-15.1,9-19.17,17" style="fill:#e0e0e0"></path><path d="M133.13,329.85c5.62.62,11.33,1,16.91.08s10.66-3.08,15.78-5.24a1.87,1.87,0,0,0,1.08-.81,1.26,1.26,0,0,0-.39-1.36,3.38,3.38,0,0,0-1.34-.63c-5.57-1.55-11.58-.82-17.06,1a79.53,79.53,0,0,0-15,6.94" style="fill:#e0e0e0"></path><path d="M101,343.71c-3.84-7.74-3.59-16.78-.27-24.75,2.33,3.55,2.61,8.07,2.19,12.3s-1.72,8.59-1.8,12.84" style="fill:#e0e0e0"></path><path d="M85.71,336a34.54,34.54,0,0,0-25.66,10.93c4.78.75,9.7-.48,14-2.6a71.06,71.06,0,0,0,12-8.06" style="fill:#e0e0e0"></path><path d="M75.41,332.54c-4.69-.38-9.2-1-13.7.42a16.44,16.44,0,0,0-10.44,8.85,24.87,24.87,0,0,0,12.84-2.42,74.42,74.42,0,0,0,11.3-6.85" style="fill:#e0e0e0"></path><path d="M90.66,332.7c-4.22-2.77-8.54-5.58-13.45-6.72s-10.59-.3-14,3.4c4,2.33,8.79,2.6,13.39,2.6s10.25-.05,14.6,1.48" style="fill:#e0e0e0"></path><path d="M90.68,332.92c-7.2-7.08-9.93-19.79-7-29.46a44.86,44.86,0,0,1,7,29.46" style="fill:#e0e0e0"></path><path d="M110.49,312.87c1.36-3.16,2.32-6.47,3.54-9.69a27.76,27.76,0,0,1,5-8.93,13.25,13.25,0,0,1,8.92-4.62,35.93,35.93,0,0,1-17.32,23.29" style="fill:#e0e0e0"></path><path d="M106.91,317.05c-2.25-3.1-4.85-7.3-7.9-9.61s-7-3.7-10.74-2.82a25,25,0,0,0,18.64,12.43" style="fill:#e0e0e0"></path><path d="M107.63,313.13a53.25,53.25,0,0,1-3.56-11.51,18,18,0,0,1,1.8-11.7c4,7.47,5.23,15.5,2,23.3" style="fill:#e0e0e0"></path><path d="M110.53,289.92c2.24-7.41,9-12.87,16.35-15.38a6.19,6.19,0,0,1,2.87-.42,2.45,2.45,0,0,1,2.11,1.76c.27,1.26-.77,2.39-1.75,3.23a55.68,55.68,0,0,1-19.58,10.81" style="fill:#e0e0e0"></path><path d="M110.61,283.86c.29-4.78.58-9.63,2.14-14.16s4.55-8.77,8.91-10.75c.74,4.82-1.39,9.62-4,13.78s-5.66,8.07-7.21,12.7" style="fill:#e0e0e0"></path><path d="M110.49,287.15c-1.85-5.41-2-12.27-5.27-17-2.26-3.29-5.88-5.53-7.83-9a13.72,13.72,0,0,0,.45,10.24,29.53,29.53,0,0,0,6,8.56c2.39,2.56,4.44,4.48,6.66,7.19" style="fill:#e0e0e0"></path><path d="M110.53,446.2c-.14,0-.27-36-.28-80.46s.1-80.48.24-80.48.27,36,.28,80.48S110.67,446.2,110.53,446.2Z" style="fill:#e0e0e0"></path><path d="M142,338.27a7,7,0,0,1-1.36.51L136.93,340c-3.14,1.07-7.46,2.62-12.14,4.54s-9,3.61-11.51,5.77a8.48,8.48,0,0,0-2.32,3.06c-.35.84-.42,1.36-.47,1.35a1.3,1.3,0,0,1,0-.37,5.4,5.4,0,0,1,.26-1.05,8.2,8.2,0,0,1,2.26-3.27,20.43,20.43,0,0,1,5-3.1c2-.93,4.21-1.9,6.56-2.87,4.7-1.93,9-3.43,12.23-4.41,1.59-.5,2.89-.86,3.78-1.1A8.07,8.07,0,0,1,142,338.27Z" style="fill:#e0e0e0"></path><path d="M152.34,312.92s-.12.16-.38.41l-1.16,1.08-4.31,3.93c-3.73,3.31-8.79,7.81-14.37,12.79s-10.45,9.76-13.81,13.35c-1.68,1.79-3,3.28-3.91,4.32L113.35,350q-.36.4-.39.39a3,3,0,0,1,.31-.46c.22-.29.54-.72,1-1.25.86-1.08,2.15-2.61,3.8-4.44a180.64,180.64,0,0,1,13.73-13.49c5.63-5,10.75-9.46,14.47-12.68l4.43-3.8,1.22-1A2.36,2.36,0,0,1,152.34,312.92Z" style="fill:#e0e0e0"></path><path d="M126.07,336.2c-.15-.06,1-2.77,2.19-6.19s1.73-6.31,1.88-6.28a21.15,21.15,0,0,1-1.39,6.45,42.76,42.76,0,0,1-1.74,4.33A6.75,6.75,0,0,1,126.07,336.2Z" style="fill:#e0e0e0"></path><path d="M110.56,358a7,7,0,0,1-.86-1l-2.21-2.84c-1.86-2.41-4.43-5.72-7.32-9.35s-5.53-6.89-7.45-9.25l-2.26-2.8a6,6,0,0,1-.78-1.07,6.44,6.44,0,0,1,.94.94c.57.62,1.39,1.55,2.39,2.69,2,2.3,4.69,5.53,7.57,9.16s5.41,7,7.2,9.46c.89,1.23,1.6,2.23,2.08,2.94A6.22,6.22,0,0,1,110.56,358Z" style="fill:#e0e0e0"></path><path d="M103.66,349.15a12.76,12.76,0,0,1-2.89-5.42,15.48,15.48,0,0,1-.66-5.46l.23,0c-.1.42-.18.64-.22.63s0-.24,0-.66h.23a25.51,25.51,0,0,0,.93,5.31A40.74,40.74,0,0,0,103.66,349.15Z" style="fill:#e0e0e0"></path><path d="M94.75,337.94a9.23,9.23,0,0,0-2-1.18,13.58,13.58,0,0,0-5.61-.44,34.07,34.07,0,0,0-5.64.91,18.68,18.68,0,0,1-2.33.56,7.79,7.79,0,0,1,2.23-.92,25.65,25.65,0,0,1,5.7-1.07,12.25,12.25,0,0,1,5.79.62A3.6,3.6,0,0,1,94.75,337.94Z" style="fill:#e0e0e0"></path><path d="M92.63,335.22c0,.08-1.17-.47-3.09-1.13A31.12,31.12,0,0,0,74,332.9c-2,.36-3.2.73-3.23.65a2.66,2.66,0,0,1,.82-.35,20.15,20.15,0,0,1,2.34-.66,27.42,27.42,0,0,1,15.79,1.21,18.61,18.61,0,0,1,2.21,1A2.78,2.78,0,0,1,92.63,335.22Z" style="fill:#e0e0e0"></path><path d="M110.49,323.73a68.45,68.45,0,0,1-2.25-7.84,63.11,63.11,0,0,1-1.75-8,62.76,62.76,0,0,1,2.25,7.83A63,63,0,0,1,110.49,323.73Z" style="fill:#e0e0e0"></path><path d="M110.64,323.73a38.93,38.93,0,0,0-2.5-4.69,20.66,20.66,0,0,0-3.68-3.8,3.4,3.4,0,0,1,1.42.73,11.48,11.48,0,0,1,2.68,2.77A10.5,10.5,0,0,1,110.64,323.73Z" style="fill:#e0e0e0"></path><path d="M110.53,427s-.16-.86-.57-2.39a34,34,0,0,0-2.4-6.24c-2.49-5.09-7-11.54-12.78-18-2.85-3.26-5.62-6.33-8-9.27a65,65,0,0,1-5.69-8.22,39.48,39.48,0,0,1-2.88-6.1c-.26-.75-.46-1.34-.57-1.74a2.76,2.76,0,0,1-.14-.62s.31.82.9,2.29a44.5,44.5,0,0,0,3,6,70,70,0,0,0,5.76,8.11c2.35,2.91,5.13,6,8,9.23,5.77,6.48,10.29,13,12.72,18.18a30.72,30.72,0,0,1,2.27,6.35,16.84,16.84,0,0,1,.32,1.81A2.71,2.71,0,0,1,110.53,427Z" style="fill:#e0e0e0"></path><path d="M139,394.86a11.92,11.92,0,0,1-1.49.83,34.26,34.26,0,0,0-3.87,2.56,45.06,45.06,0,0,0-5.08,4.63c-1.78,1.89-3.61,4.07-5.49,6.42-3.75,4.7-7.25,8.86-9.35,12.18-1.07,1.65-1.84,3-2.35,4a11.11,11.11,0,0,1-.82,1.5,1.3,1.3,0,0,1,.14-.42c.11-.27.26-.67.5-1.17a36.42,36.42,0,0,1,2.22-4.11c2-3.41,5.51-7.62,9.25-12.32,1.88-2.35,3.74-4.54,5.56-6.42a41.35,41.35,0,0,1,5.2-4.59,26.48,26.48,0,0,1,4-2.44c.49-.25.9-.4,1.16-.52A1.3,1.3,0,0,1,139,394.86Z" style="fill:#e0e0e0"></path><path d="M139.54,405.28a19.75,19.75,0,0,1-3.15.46,42.12,42.12,0,0,0-7.48,1.47,22.39,22.39,0,0,0-6.69,3.52c-1.54,1.19-2.27,2.17-2.34,2.12s.12-.29.47-.73a11.21,11.21,0,0,1,1.64-1.68,20.29,20.29,0,0,1,6.76-3.72,33.77,33.77,0,0,1,7.6-1.35A18.51,18.51,0,0,1,139.54,405.28Z" style="fill:#e0e0e0"></path><path d="M120.8,411.7c-.17-.09,1.25-2.26,2.36-5.18s1.27-5.53,1.46-5.5a5.45,5.45,0,0,1-.05,1.69,19,19,0,0,1-.92,4,19.52,19.52,0,0,1-1.83,3.65C121.26,411.23,120.86,411.74,120.8,411.7Z" style="fill:#e0e0e0"></path><path d="M148.2,366.87a2.44,2.44,0,0,1-.51.27l-1.48.67c-.65.28-1.43.63-2.32,1.1s-1.93.93-3,1.58l-1.72,1c-.6.34-1.19.75-1.82,1.14-1.26.77-2.53,1.72-3.89,2.68a67.07,67.07,0,0,0-15,15.52c-.92,1.39-1.82,2.69-2.55,4-.37.64-.76,1.24-1.08,1.85s-.62,1.19-.92,1.75c-.61,1.11-1,2.16-1.48,3.07s-.76,1.7-1,2.36l-.63,1.5a1.79,1.79,0,0,1-.25.51,3.87,3.87,0,0,1,.15-.55c.15-.4.32-.91.54-1.54a23.13,23.13,0,0,1,.94-2.4c.4-.92.82-2,1.41-3.11l.9-1.78c.31-.62.69-1.23,1.06-1.88.71-1.31,1.61-2.63,2.52-4a64.23,64.23,0,0,1,15.11-15.63c1.37-1,2.66-1.9,3.94-2.66.64-.39,1.24-.79,1.84-1.13l1.75-.95c1.1-.63,2.16-1.09,3.06-1.52s1.71-.78,2.37-1l1.52-.58A2,2,0,0,1,148.2,366.87Z" style="fill:#e0e0e0"></path><path d="M125.68,382a3.53,3.53,0,0,1,1.24-1.85,7.8,7.8,0,0,1,5-1.91,13.72,13.72,0,0,1,5.25,1,7.25,7.25,0,0,1,2,1,11.91,11.91,0,0,1-2.1-.62,15.8,15.8,0,0,0-5.12-.85,8.14,8.14,0,0,0-4.76,1.67A14.16,14.16,0,0,0,125.68,382Z" style="fill:#e0e0e0"></path><path d="M122.31,385.43a13.28,13.28,0,0,0,1.1-9.42c.06,0,.34.46.59,1.34a9.51,9.51,0,0,1-.81,6.91C122.75,385.05,122.36,385.46,122.31,385.43Z" style="fill:#e0e0e0"></path><path d="M85.65,432.16c.77,13.77,4.92,27.77,11.3,41.93h27.76c6.08-14,10-28,10.63-41.93Z" style="fill:#e0e0e0"></path><path d="M130.85,454.44c0,.14-9.14.26-20.41.26S90,454.58,90,454.44s9.13-.26,20.41-.26S130.85,454.29,130.85,454.44Z" style="fill:#fafafa"></path><path d="M130.22,459.43c0,.14-8.56.26-19.13.26S92,459.57,92,459.43s8.57-.26,19.13-.26S130.22,459.28,130.22,459.43Z" style="fill:#fafafa"></path><path d="M97.4,441.2a78.65,78.65,0,0,1,0,12.78,78.65,78.65,0,0,1,0-12.78Z" style="fill:#fafafa"></path><path d="M112.27,441.2a84.41,84.41,0,0,1,0,13.24,84.41,84.41,0,0,1,0-13.24Z" style="fill:#fafafa"></path><path d="M126.23,441.09a87.75,87.75,0,0,1,0,13.5,87.75,87.75,0,0,1,0-13.5Z" style="fill:#fafafa"></path><path d="M134.46,441.2c0,.14-10.72.26-23.93.26s-23.94-.12-23.94-.26,10.71-.26,23.94-.26S134.46,441.05,134.46,441.2Z" style="fill:#fafafa"></path><rect x="343.32" y="52.84" width="98.83" height="163.6" style="fill:#e0e0e0"></rect><rect x="340.03" y="52.84" width="98.83" height="163.6" style="fill:#ebebeb"></rect><rect x="344.24" y="56.16" width="90.42" height="156.96" style="fill:#fff"></rect><rect x="361.45" y="76.55" width="55.6" height="116.17" style="fill:#ebebeb"></rect><path d="M361.45,151.61c-.13-10.85,9.63-21.44,20.38-23,5.12-.72,10.56.3,15.35-1.67,8.55-3.5,11.27-14.86,19.87-18.22l.39,84h-56Z" style="fill:#e0e0e0"></path><rect x="131.26" y="48.84" width="6.08" height="130.78" style="fill:#e0e0e0"></rect><rect x="43.03" y="49.85" width="87.31" height="129.95" rx="0.09" style="fill:#f5f5f5"></rect><path d="M131.26,180.81H42.1a.09.09,0,0,1-.09-.09V48.92a.08.08,0,0,1,.09-.08h89.16a.08.08,0,0,1,.09.08v131.8A.09.09,0,0,1,131.26,180.81Zm-87.13-2h85.11a.09.09,0,0,0,.09-.09V51a.09.09,0,0,0-.09-.09H44.13A.09.09,0,0,0,44,51V178.7A.09.09,0,0,0,44.13,178.79Z" style="fill:#ebebeb"></path><rect x="51.82" y="57.86" width="69.88" height="113.83" rx="0.09" style="fill:#fff"></rect><rect x="67.06" y="90.14" width="39.24" height="45.99" rx="0.06" style="fill:#ebebeb"></rect><path d="M103.2,130.5c0,.15-1.89,1-5.58.56a13.59,13.59,0,0,1-6.26-2.5,12.72,12.72,0,0,1-4.86-7.65,11,11,0,0,1,3.72-10.47A10,10,0,0,1,93,108.79a7.55,7.55,0,0,1,3.53-.41,6.25,6.25,0,0,1,3.53,1.54,4.63,4.63,0,0,1,1.39,4.12,6.76,6.76,0,0,1-1.94,3.53,12.88,12.88,0,0,1-3,2.17,16.18,16.18,0,0,1-7,2A14.09,14.09,0,0,1,82,120.05a13.68,13.68,0,0,1-5.53-5.74,11.63,11.63,0,0,1-1-8,11.87,11.87,0,0,1,4.23-6.62,10.25,10.25,0,0,1,3.55-1.79,8.82,8.82,0,0,1,4-.13,6.55,6.55,0,0,1,3.63,2,6.07,6.07,0,0,1,1.42,3.87,7.32,7.32,0,0,1-1,3.69,9.57,9.57,0,0,1-2.24,2.69,14.94,14.94,0,0,1-5.56,3,14.22,14.22,0,0,1-5.84.45,12,12,0,0,1-5.09-1.95,11,11,0,0,1-4.86-7.7,9.28,9.28,0,0,1,1.8-6.6,7.73,7.73,0,0,1,3.33-2.66c.92-.35,1.44-.34,1.46-.25s-.41.33-1.16.82a8.77,8.77,0,0,0-2.59,2.79,8.21,8.21,0,0,0-1.06,5.63,9.24,9.24,0,0,0,4.32,6.06,10.66,10.66,0,0,0,8.92.85,12.57,12.57,0,0,0,4.46-2.53,5.46,5.46,0,0,0,2.08-4.18,3,3,0,0,0-2.68-3,5.92,5.92,0,0,0-2.57.13,7.48,7.48,0,0,0-2.42,1.26A8.86,8.86,0,0,0,78.63,107a8.5,8.5,0,0,0,.75,5.83,10.57,10.57,0,0,0,4.22,4.39,11,11,0,0,0,5.81,1.35A13.2,13.2,0,0,0,95.12,117a9.65,9.65,0,0,0,2.28-1.61,3.93,3.93,0,0,0,1.16-1.88,1.65,1.65,0,0,0-.47-1.52,3.37,3.37,0,0,0-1.89-.83,4.59,4.59,0,0,0-2.22.19,7,7,0,0,0-2.08,1.13,8.63,8.63,0,0,0-3.15,8,11,11,0,0,0,3.73,6.63,13.28,13.28,0,0,0,5.38,2.68C101.18,130.6,103.17,130.22,103.2,130.5Z" style="fill:#e0e0e0"></path></g><g id="freepik--Floor--inject-96"><path d="M461,474.51c0,.14-94.47.26-211,.26s-211-.12-211-.26,94.45-.26,211-.26S461,474.37,461,474.51Z" style="fill:#263238"></path></g><g id="freepik--Fish--inject-96"><path d="M324.37,162.79l11.74,11.92a24.17,24.17,0,0,0,7.59-7A36.13,36.13,0,0,0,324.37,162.79Z" style="fill:#1D4ED8"></path><path d="M311.78,179.92a22.18,22.18,0,0,0,4.59,10.13,3.62,3.62,0,0,0,1.73,1.32,2.66,2.66,0,0,0,2.39-.74,8,8,0,0,0,1.48-2.15Z" style="fill:#1D4ED8"></path><path d="M337.24,186.63l-3.32,2.3A13.16,13.16,0,0,0,335,204a13.08,13.08,0,0,0,4.3-13.05A12.39,12.39,0,0,0,353.13,186,17.26,17.26,0,0,0,337.24,186.63Z" style="fill:#1D4ED8"></path><path d="M311.1,162.34s15.71-3.61,24.42,5.82,1.17,20.56,1.17,20.56-11.42,4.31-20.5-2.7S311.1,162.34,311.1,162.34Z" style="fill:#1D4ED8"></path><path d="M318.84,165l0,0a1.31,1.31,0,0,0-1.08-.2,1.23,1.23,0,0,0-.49.29,1.32,1.32,0,1,0,2.14,1.45,1.1,1.1,0,0,0,.09-.51A1.33,1.33,0,0,0,318.84,165Z" style="fill:#263238"></path><path d="M337.07,183.52a15.88,15.88,0,0,1,.28-2.21,14.34,14.34,0,0,0-.47-5.23,14.08,14.08,0,0,0-2.39-4.67,19.37,19.37,0,0,1-1.42-1.71,5,5,0,0,1,1.77,1.41,12.28,12.28,0,0,1,3,10.27A5.11,5.11,0,0,1,337.07,183.52Z" style="fill:#fff"></path><path d="M329.39,167.15c-.14.12-.39,0-.56-.15a.43.43,0,0,1-.06-.57c.14-.12.39-.05.56.15S329.53,167,329.39,167.15Z" style="fill:#fff"></path><path d="M326.94,162.9l.6.19.72.24.95.41a19.67,19.67,0,0,1,5.43,3.7,22.94,22.94,0,0,1,3,3.44,11.74,11.74,0,0,1,1.95,4.84,17.74,17.74,0,0,1,0,5.77,51.73,51.73,0,0,1-1.85,5.93c-.11.32-.23.63-.33.92l0,0,0,0a20.41,20.41,0,0,1-11.39,1.73,17.48,17.48,0,0,1-8.68-3.56A18.72,18.72,0,0,1,312.9,182a12.35,12.35,0,0,1-1.12-2s.11.18.29.53a15.19,15.19,0,0,0,.9,1.47,19,19,0,0,0,4.37,4.54,17.47,17.47,0,0,0,8.62,3.48,20.34,20.34,0,0,0,11.27-1.73l-.05.06c.11-.29.22-.61.34-.92a55.87,55.87,0,0,0,1.84-5.89,18,18,0,0,0,0-5.71,11.51,11.51,0,0,0-1.9-4.77,22.7,22.7,0,0,0-2.95-3.43,20.53,20.53,0,0,0-5.36-3.74l-.94-.42-.72-.26C327.14,163,326.94,162.9,326.94,162.9Z" style="fill:#263238"></path><path d="M335.68,197.68a1.64,1.64,0,0,1-.07-.38c0-.24-.07-.59-.09-1a17,17,0,0,1,1.07-6.67c.16-.4.3-.73.4-1a1.35,1.35,0,0,1,.19-.32s-.18.5-.45,1.32a20.58,20.58,0,0,0-.81,3.26,21.14,21.14,0,0,0-.25,3.36C335.67,197.14,335.72,197.67,335.68,197.68Z" style="fill:#263238"></path><path d="M346.23,186.46s-.53,0-1.38,0a16,16,0,0,0-3.27.35,16.35,16.35,0,0,0-3.13,1c-.77.35-1.23.61-1.25.58a1.3,1.3,0,0,1,.3-.22,8.63,8.63,0,0,1,.89-.49,13.46,13.46,0,0,1,3.14-1.1,13.18,13.18,0,0,1,3.33-.3c.42,0,.77,0,1,.08A1.2,1.2,0,0,1,346.23,186.46Z" style="fill:#263238"></path><path d="M342.43,189c0,.07-1.13-.31-2.57-.44s-2.6,0-2.61,0a2.4,2.4,0,0,1,.76-.16,9.53,9.53,0,0,1,1.87,0,9.65,9.65,0,0,1,1.84.36A2.31,2.31,0,0,1,342.43,189Z" style="fill:#263238"></path><path d="M323,163a7.73,7.73,0,0,1-.12,2.57,9.77,9.77,0,0,1-8.63,7.92,7.69,7.69,0,0,1-2.58-.11,13.76,13.76,0,0,0,2.56,0,9.86,9.86,0,0,0,8.51-7.8A14.21,14.21,0,0,0,323,163Z" style="fill:#263238"></path><path d="M320.46,175.57a1.36,1.36,0,0,1,.26.34,7.5,7.5,0,0,1,.55,1,8.09,8.09,0,0,1,.54,1.66,2.64,2.64,0,0,1,0,1.05,1.61,1.61,0,0,1-.63.95,2.22,2.22,0,0,1-2.11.25,3.87,3.87,0,0,1-1.43-1,9.43,9.43,0,0,1-.73-.92,1.42,1.42,0,0,1-.22-.37s.38.49,1.05,1.18a3.85,3.85,0,0,0,1.4.93,2.05,2.05,0,0,0,1.92-.23,1.72,1.72,0,0,0,.55-1.81,9.06,9.06,0,0,0-.49-1.63C320.77,176.09,320.43,175.58,320.46,175.57Z" style="fill:#263238"></path><path d="M324.46,171.87a1.9,1.9,0,0,1,.27.39,8.07,8.07,0,0,1,.56,1.14,10.25,10.25,0,0,1,.56,1.81,2.92,2.92,0,0,1-.24,2.31,1.45,1.45,0,0,1-1.09.6,2.7,2.7,0,0,1-1.12-.22,7.4,7.4,0,0,1-1.65-1,6.91,6.91,0,0,1-.93-.87,1.77,1.77,0,0,1-.29-.38,15.83,15.83,0,0,0,1.31,1.13,7.69,7.69,0,0,0,1.63.89,2.6,2.6,0,0,0,1,.19,1.2,1.2,0,0,0,.93-.51,2.8,2.8,0,0,0,.22-2.15,11.71,11.71,0,0,0-.5-1.8C324.78,172.46,324.43,171.89,324.46,171.87Z" style="fill:#263238"></path><path d="M327.24,168.62a1.54,1.54,0,0,1,.36.27,5.48,5.48,0,0,1,.82.93,6.19,6.19,0,0,1,.84,1.63,3,3,0,0,1,0,2.25,1.29,1.29,0,0,1-1,.69,2.18,2.18,0,0,1-1.09-.22,6.31,6.31,0,0,1-1.54-1,6.47,6.47,0,0,1-.85-.9,1.93,1.93,0,0,1-.25-.38s.4.51,1.19,1.16a7.37,7.37,0,0,0,1.52.95,2,2,0,0,0,1,.19,1.08,1.08,0,0,0,.82-.59,2.75,2.75,0,0,0,0-2.09,6.53,6.53,0,0,0-.77-1.61A10.79,10.79,0,0,0,327.24,168.62Z" style="fill:#263238"></path><path d="M325,178a1.27,1.27,0,0,1,.15.32,6.4,6.4,0,0,1,.27.9,7.41,7.41,0,0,1,.19,1.4,1.76,1.76,0,0,1-.69,1.58,1.17,1.17,0,0,1-.94.12,3.88,3.88,0,0,1-.77-.33,5.12,5.12,0,0,1-1.13-.85,4.08,4.08,0,0,1-.61-.73.92.92,0,0,1-.17-.3s.29.4.88.92a5.47,5.47,0,0,0,1.12.79c.44.22,1,.52,1.51.21a1.62,1.62,0,0,0,.61-1.41,8.77,8.77,0,0,0-.14-1.37C325.16,178.51,325,178,325,178Z" style="fill:#263238"></path><path d="M328.87,174a2.06,2.06,0,0,1,.2.32,8.27,8.27,0,0,1,.46.91,5.88,5.88,0,0,1,.47,1.45,2.89,2.89,0,0,1-.21,1.87,1.58,1.58,0,0,1-1.69.71,2.5,2.5,0,0,1-1.35-.72,5.31,5.31,0,0,1-.67-.79,1,1,0,0,1-.19-.32s.34.42.95,1a2.6,2.6,0,0,0,1.28.65,1.4,1.4,0,0,0,1.49-.64,2.75,2.75,0,0,0,.2-1.73,6.78,6.78,0,0,0-.41-1.43C329.08,174.47,328.84,174,328.87,174Z" style="fill:#263238"></path><path d="M328.87,179.08a1.54,1.54,0,0,1,.22.27,6.9,6.9,0,0,1,.48.8,3.17,3.17,0,0,1,.37,1.34,2.07,2.07,0,0,1-.66,1.58,1.69,1.69,0,0,1-1.69.19,4.41,4.41,0,0,1-1.19-.73c-.3-.25-.55-.44-.72-.57s-.28-.19-.27-.2a3.68,3.68,0,0,1,1.08.65,4.42,4.42,0,0,0,1.16.67,1.51,1.51,0,0,0,1.49-.17,1.9,1.9,0,0,0,.61-1.42,3.09,3.09,0,0,0-.32-1.28C329.11,179.51,328.84,179.1,328.87,179.08Z" style="fill:#263238"></path></g><g id="freepik--Salad--inject-96"><path d="M294.9,51.48a2.79,2.79,0,0,0-.73-2.73,4.21,4.21,0,0,0-2.67-1.14,4.5,4.5,0,0,0-2.52.49,3.09,3.09,0,0,0-.79,5,4.4,4.4,0,0,0,2.91,1.3,3.64,3.64,0,0,0,2.58-.75,3.07,3.07,0,0,0,1.22-2.15" style="fill:#1D4ED8"></path><path d="M304.17,54.83c3.66.93,7.63-2.93,8.71-5.55a.92.92,0,0,0,0-.85.93.93,0,0,0-.87-.27,8.69,8.69,0,0,0-7.87,6.67" style="fill:#455a64"></path><path d="M308.48,53.09a2.77,2.77,0,0,0-.73-2.72,4.11,4.11,0,0,0-2.67-1.14,4.57,4.57,0,0,0-2.52.48,3.3,3.3,0,0,0-1.61,2,3.25,3.25,0,0,0,.82,3,4.34,4.34,0,0,0,2.91,1.3,3.61,3.61,0,0,0,2.57-.74,3.06,3.06,0,0,0,1.23-2.16" style="fill:#1D4ED8"></path><path d="M289.28,52.56c.1-1.93-1.07-4.39-2.09-6a9.58,9.58,0,0,0-4.35-3.71.61.61,0,0,0-.39-.06.54.54,0,0,0-.27.32,6.84,6.84,0,0,0,7.1,9.48" style="fill:#455a64"></path><path d="M276,48.3a17.22,17.22,0,0,1-1.77-2.86,6.08,6.08,0,0,1-.61-3.27.56.56,0,0,1,.21-.43.55.55,0,0,1,.47,0,10.26,10.26,0,0,1,7.34,9.5l.07.56a7.94,7.94,0,0,1-5.92.46,12.14,12.14,0,0,1-4.41-2.1,6.49,6.49,0,0,1-2.48-4.1A8.81,8.81,0,0,1,276,48.3Z" style="fill:#455a64"></path><path d="M299.32,46.64a13.37,13.37,0,0,1,6.8-2.87,9.37,9.37,0,0,1-9,9.86l-.12-.28A6.87,6.87,0,0,1,299.32,46.64Z" style="fill:#455a64"></path><path d="M311.79,53s-4.14,14.84-12.67,20.17c-11.13,7-28.06-2-29.52-5.54s-4.13-18.09-4.13-18.09Z" style="fill:#ebebeb"></path><path d="M311.79,53l-.21,0-.66-.06-2.58-.21L298.68,52l-33.2-2.55-.2,0,0,.2c.83,4.47,1.75,9.19,2.92,14,.26,1,.51,2,.83,3,.07.25.16.5.25.74s.09.25.14.37.13.25.2.36a6.58,6.58,0,0,0,1,1.19,22.25,22.25,0,0,0,5.1,3.28,35,35,0,0,0,5.45,2.11,30.65,30.65,0,0,0,5.49,1.09,20.61,20.61,0,0,0,10.2-1.3,18.22,18.22,0,0,0,7-5.56,36.76,36.76,0,0,0,4-6.25,51.71,51.71,0,0,0,2.3-5.11c.57-1.43.94-2.57,1.19-3.34.12-.39.21-.68.26-.88a1.12,1.12,0,0,0,.07-.31s0,.1-.1.3-.17.5-.29.87c-.27.77-.66,1.89-1.24,3.31s-1.33,3.15-2.35,5.08a37.35,37.35,0,0,1-4,6.18,18.07,18.07,0,0,1-6.95,5.47,20.55,20.55,0,0,1-10.07,1.25,32.92,32.92,0,0,1-10.83-3.19,22,22,0,0,1-5-3.24,5.79,5.79,0,0,1-1-1.12l-.17-.31-.14-.36c-.08-.24-.18-.48-.25-.73-.31-1-.56-2-.82-3-1.17-4.81-2.08-9.54-2.92-14l-.17.19,33.09,2.39,9.7.68,2.62.18.68,0Z" style="fill:#263238"></path><path d="M300.63,70a4.3,4.3,0,0,0,.52-.47c.32-.32.76-.79,1.3-1.39a45,45,0,0,0,3.79-5,43.63,43.63,0,0,0,3-5.52c.33-.73.58-1.33.74-1.75a3.24,3.24,0,0,0,.21-.67,2.69,2.69,0,0,0-.33.62c-.19.4-.47,1-.83,1.71A57.27,57.27,0,0,1,306,62.93a56.26,56.26,0,0,1-3.7,5c-.5.62-.92,1.11-1.22,1.45A2.52,2.52,0,0,0,300.63,70Z" style="fill:#fafafa"></path><path d="M267.91,52a2,2,0,0,0,.42.08l1.24.16c1.07.13,2.62.3,4.53.49,3.84.4,9.14.87,15,1.25s11.2.62,15.05.74c1.93.06,3.49.09,4.56.1H310a2.06,2.06,0,0,0,.43,0,2.14,2.14,0,0,0-.43-.05l-1.24-.06-4.56-.21c-3.85-.17-9.17-.44-15-.83s-11.18-.82-15-1.15l-4.55-.4-1.24-.1Z" style="fill:#fafafa"></path><polygon points="258.85 24.73 258.15 19.78 266.96 18.81 267.3 24.73 258.85 24.73" style="fill:#455a64"></polygon><path d="M274.87,41.09s0,0,0,0L276.7,70c.08,1.27-.86,2.64-2.67,3.75A17.65,17.65,0,0,1,266.11,76h-.05c-6.84.42-11.09-2-11.26-4.56L253,42.51s0,0,0,0,0,0,0-.06c-.16-2.83,1.73-5.91,3.64-8.95A12.39,12.39,0,0,0,258,27c0-.2,0-.37,0-.54l-.19,0a1.54,1.54,0,0,1-1.72-1.3L256,23.91a1.54,1.54,0,0,1,1.55-1.51l10.27-.65a1.67,1.67,0,0,1,1.56.76,1.3,1.3,0,0,1,.16.54l.07,1.23a1.53,1.53,0,0,1-1.54,1.5h-.19c0,.16,0,.34.05.53a12.34,12.34,0,0,0,2.21,6.28c2.27,2.78,4.54,5.6,4.73,8.43C274.87,41.05,274.86,41.07,274.87,41.09Z" style="fill:#fafafa"></path><path d="M274.87,41.09s0-.1,0-.3a7.27,7.27,0,0,0-.16-.86,11.15,11.15,0,0,0-1.39-3,42.73,42.73,0,0,0-3.24-4.3,9.21,9.21,0,0,1-1.54-3,16.74,16.74,0,0,1-.7-3.75v-.09h.09a1.92,1.92,0,0,0,1.07-.32,1.33,1.33,0,0,0,.57-.95c0-.39,0-.82-.07-1.24a1.21,1.21,0,0,0-.51-1,1.74,1.74,0,0,0-1.18-.31l-1.35.09-2.79.18-5.91.38a1.74,1.74,0,0,0-1.3.56,1.28,1.28,0,0,0-.29.65,7.1,7.1,0,0,0,0,.77c0,.25,0,.54,0,.78a1.24,1.24,0,0,0,.35.63,1.74,1.74,0,0,0,1.42.41l.12,0v.13a16.69,16.69,0,0,1-.17,3.52,9.43,9.43,0,0,1-1.15,3.46c-.65,1-1.31,2.1-1.91,3.2a16,16,0,0,0-1.49,3.48A7.59,7.59,0,0,0,253.1,42c0,.63.06,1.3.1,1.95.08,1.32.17,2.65.25,4q.26,4,.52,8.18c.3,4.87.6,9.62.89,14.21a8.05,8.05,0,0,0,.19,1.67,3.31,3.31,0,0,0,.87,1.37A7.74,7.74,0,0,0,258.74,75a14.05,14.05,0,0,0,3.16.73,20.18,20.18,0,0,0,3.19.16,21.73,21.73,0,0,0,6-.93,13.51,13.51,0,0,0,2.69-1.17A7.23,7.23,0,0,0,276,72a3.6,3.6,0,0,0,.58-1.22,4.54,4.54,0,0,0,0-1.33c-.06-.91-.11-1.79-.17-2.66-.11-1.74-.21-3.42-.31-5-.38-6.38-.69-11.54-.91-15.11s-.3-5.54-.3-5.54a2,2,0,0,1,0,.36c0,.25,0,.6.08,1.07.07.94.16,2.32.28,4.1.24,3.58.58,8.73,1,15.11.1,1.59.21,3.26.32,5q.09,1.3.18,2.67c0,.22,0,.45,0,.68a2.81,2.81,0,0,1-.07.71,3.59,3.59,0,0,1-.62,1.29A7.25,7.25,0,0,1,273.93,74a13.35,13.35,0,0,1-2.73,1.19,21.57,21.57,0,0,1-6.11,1,20.54,20.54,0,0,1-3.22-.15,15.31,15.31,0,0,1-3.22-.74,8.07,8.07,0,0,1-2.91-1.72A3.61,3.61,0,0,1,254.8,72a8.64,8.64,0,0,1-.19-1.73c-.29-4.59-.59-9.34-.9-14.21q-.27-4.16-.52-8.18c-.08-1.34-.17-2.67-.25-4,0-.66-.09-1.3-.1-2a7.93,7.93,0,0,1,.3-2,16.44,16.44,0,0,1,1.52-3.54c.6-1.11,1.28-2.16,1.91-3.2a9.55,9.55,0,0,0,1.14-3.37,17,17,0,0,0,.16-3.48l.13.11a2,2,0,0,1-1.6-.48,1.36,1.36,0,0,1-.41-.75c0-.29,0-.54-.06-.81a5.33,5.33,0,0,1,0-.81,1.46,1.46,0,0,1,.34-.77,1.9,1.9,0,0,1,1.45-.63l5.92-.37,2.79-.17,1.34-.08a1.89,1.89,0,0,1,1.31.35,1.43,1.43,0,0,1,.59,1.18c0,.43.06.83.06,1.26a1.46,1.46,0,0,1-.65,1.08,2,2,0,0,1-1.16.35l.08-.09a12.52,12.52,0,0,0,2.17,6.7,42.18,42.18,0,0,1,3.22,4.34,11.14,11.14,0,0,1,1.36,3.09,8.24,8.24,0,0,1,.14.87A1.69,1.69,0,0,1,274.87,41.09Z" style="fill:#263238"></path><path d="M267.3,25.76a41.06,41.06,0,0,1-4.57.42,36.9,36.9,0,0,1-4.58.15,41.06,41.06,0,0,1,4.57-.42A39.39,39.39,0,0,1,267.3,25.76Z" style="fill:#263238"></path><path d="M274.19,45a3.25,3.25,0,0,0-3.12.33,11.85,11.85,0,0,1-2.92,1.49,5.83,5.83,0,0,1-3.74-.71,22.47,22.47,0,0,0-3.52-1.64,6.65,6.65,0,0,0-6.73,2l1.57,24.82s1.63,4.15,11.18,2.88,8.54-5.46,8.54-5.46Z" style="fill:#1D4ED8"></path></g><g id="freepik--Apple--inject-96"><path d="M340.65,96a10.13,10.13,0,0,0-8.2-11.82,1,1,0,0,0-.73.06c-.3.19-.32.61-.3,1a12.23,12.23,0,0,0,9.21,11.08" style="fill:#455a64"></path><path d="M325.9,114.3c2.4,5.34,6,9,10.51,9.3.91.06,1.61-.52,2.48-.54a5.22,5.22,0,0,1,1.44.59,1.85,1.85,0,0,0,.76.19c4.71-.11,8.81-3.3,11.67-8.75,4-7.63,3.08-16-2-18.67a11.56,11.56,0,0,0-2.1-.89,8.37,8.37,0,0,0-2.57-.38,19,19,0,0,0-5.93,1.16l-.26.08c-4.16-2-7.52-2.09-10.84-.61C323.76,98.15,322.36,106.44,325.9,114.3Z" style="fill:#1D4ED8"></path><path d="M326.22,106.45a3.81,3.81,0,0,1-.39-1.57,8.4,8.4,0,0,1,2.84-7A3.83,3.83,0,0,1,330,97s-.49.37-1.19,1a9.25,9.25,0,0,0-2.76,6.84C326.13,105.84,326.28,106.44,326.22,106.45Z" style="fill:#fafafa"></path><path d="M327.06,110.16c-.1,0-.26-.35-.35-.82s-.09-.88,0-.9.26.35.36.82S327.17,110.14,327.06,110.16Z" style="fill:#fafafa"></path><path d="M351.74,83.67c0,.06-1,.41-2.47,1.24a19.12,19.12,0,0,0-2.48,1.66,22.78,22.78,0,0,0-2.64,2.52,20.76,20.76,0,0,0-2.12,3,19,19,0,0,0-1.3,2.68c-.62,1.59-.82,2.64-.89,2.62a2.56,2.56,0,0,1,.1-.74,6.79,6.79,0,0,1,.2-.86,9.65,9.65,0,0,1,.34-1.11,16.48,16.48,0,0,1,1.25-2.77,19.06,19.06,0,0,1,2.14-3,19.83,19.83,0,0,1,2.71-2.54,16.31,16.31,0,0,1,2.56-1.62,10.74,10.74,0,0,1,1.06-.5,6.85,6.85,0,0,1,.82-.31A2.29,2.29,0,0,1,351.74,83.67Z" style="fill:#263238"></path></g><g id="freepik--Sandwich--inject-96"><path d="M130.26,187l.09-5a.69.69,0,0,1,.54-.67,28.9,28.9,0,0,0,5.68-1.76c2.4-1.15,5.28-2.83,7.34-3.67,2.26-.91,8.33-3.82,9.51-4.22a.67.67,0,0,1,.37,0l23.06,4.95.12,0c.37,0,2.49.14,2.62,1.15s0,4.28-.08,5.5a.69.69,0,0,1-.43.61c-2.13.88-12,5-14.4,7.51-2.74,2.81-6,5.21-7.23,5.27s-5.83-1.62-7.17-2-16.65-5.88-19.56-6.92A.68.68,0,0,1,130.26,187Z" style="fill:#ffbe9d"></path><path d="M179.59,177.68s-7.57,3.45-11,4.9a22.37,22.37,0,0,0-7.21,5.38c-1.43,1.48-2.15,2.48-4.53,2.55s-9.56-2.81-13.27-4.31-11.16-4.06-12.91-4.66a.28.28,0,0,0-.37.26l0,1-.08,4.69s18.69,6.66,20,7.08,5.9,2.09,7.17,2,4.49-2.46,7.23-5.27,14.81-7.67,14.81-7.67S179.73,178.79,179.59,177.68Z" style="fill:#eb996e"></path><path d="M143.68,177.7c-.39.05-.66.31-.59.55s.48.43.87.41.71-.26.69-.51-.39-.46-.78-.47" style="fill:#eb996e"></path><path d="M166.93,180.52c-.39.06-.66.32-.59.56s.48.43.87.4.72-.26.69-.5-.38-.46-.78-.47" style="fill:#eb996e"></path><path d="M167.06,179.45c-.22,0-.38.18-.34.32s.28.25.5.23.42-.15.4-.29-.22-.27-.45-.27" style="fill:#eb996e"></path><path d="M162.21,183.62c-.22,0-.38.18-.34.32s.28.25.5.23.42-.15.4-.29-.22-.27-.45-.27" style="fill:#eb996e"></path><path d="M141.63,178.37c-.23,0-.38.18-.34.32s.27.25.5.23.41-.15.4-.29-.22-.27-.45-.27" style="fill:#eb996e"></path><path d="M130.72,181.54l.14,0,.39.12,1.49.51c1.3.44,3.18,1.09,5.48,1.91,1.16.41,2.42.87,3.77,1.38s2.77,1.1,4.28,1.69,3.1,1.2,4.76,1.77c.83.29,1.69.57,2.56.83a18.29,18.29,0,0,0,2.68.61,2.07,2.07,0,0,0,.35,0H157l.34,0,.34,0a4.63,4.63,0,0,0,1.3-.36,7.25,7.25,0,0,0,2-1.69,31.59,31.59,0,0,1,3.73-3.47,17.94,17.94,0,0,1,4-2.35l3.66-1.63,5.31-2.35,1.44-.64.38-.16.13,0-.12.06-.38.18-1.43.65-5.29,2.4-3.66,1.64a18.4,18.4,0,0,0-3.93,2.35,31.23,31.23,0,0,0-3.7,3.46,7.28,7.28,0,0,1-2.08,1.72,5,5,0,0,1-1.34.38l-.35,0-.35,0c-.11,0-.23,0-.35,0s-.24,0-.35,0a18.12,18.12,0,0,1-2.71-.62c-.88-.26-1.73-.54-2.56-.83-1.67-.58-3.26-1.19-4.77-1.79s-2.92-1.19-4.27-1.7-2.61-1-3.76-1.39l-5.47-2-1.48-.53-.39-.14Z" style="fill:#263238"></path><g style="opacity:0.2"><path d="M137.54,179c3,1.65,6.16,3.35,9.57,3.16,2.62-.14,5-1.4,7.4-2.54a97.13,97.13,0,0,1,12.87-5.12c-3.41-.74-6.67-1.49-10.09-2.17-1-.21-2.87-.6-3.52-.77a.83.83,0,0,0-.5.09c-.71.3-3.34,1.45-4.18,1.83-6.86,3.11-7.54,3.46-11.55,5.52"></path></g><path d="M129.78,181.2c-.08.22,3,11.6,3,11.6s7.72,1.91,11.38.94,14.42-4.78,17-5.2,10.1-.2,13.79.24,7.82.39,10.14-.52l.06-.62L180.23,178a35.52,35.52,0,0,1-8.49-.15c-4.84-.64-11.35-1-16.65,1.21s-8,2.72-10.18,3-13.67-1.34-15.07-1.45Z" style="fill:#1D4ED8"></path><path d="M129.78,181.2c-.08.22,3,11.6,3,11.6s7.72,1.91,11.38.94,14.42-4.78,17-5.2,10.1-.2,13.79.24,7.82.39,10.14-.52l.06-.62L180.23,178a35.52,35.52,0,0,1-8.49-.15c-4.84-.64-11.35-1-16.65,1.21s-8,2.72-10.18,3-13.67-1.34-15.07-1.45Z" style="opacity:0.30000000000000004"></path><path d="M129.84,180.58c-.09.21,3,11.59,3,11.59s7.73,1.92,11.39,1,14.42-4.78,17-5.2,10.1-.2,13.8.24,7.82.39,10.14-.52l-4.83-10.25a35.89,35.89,0,0,1-8.49-.16c-4.85-.64-11.36-1-16.65,1.21s-8,2.73-10.19,3S129.84,180.58,129.84,180.58Z" style="fill:#1D4ED8"></path><path d="M185.12,187.64c-2.32.91-6.56.92-10.25.48s-11.25-.65-13.79-.24-13.3,4.23-17,5.2-11.15-.82-11.15-.82l-.18.54-1.11-4.14.13-.32a42.56,42.56,0,0,1,7.52-.06c3.81.34,7.18,1.15,9.2.61a33.08,33.08,0,0,0,6.8-2.24,18,18,0,0,1,9.2-2.14c3.85.24,5.82.63,9,.85s9.34-1.21,9.9-1.37Z" style="fill:#fff;opacity:0.30000000000000004"></path><path d="M130,182.34l.15-.24a15.49,15.49,0,0,0,6.77,1.19c3.93-.16,12.62-1.31,13.14-1s.71.24-.37.95-14.46,3.6-18.47,3l-.16.21Z" style="fill:#fff;opacity:0.30000000000000004"></path><path d="M181.12,179.15s-4.07,1.89-14.69.91c0,0-6.84-.26-10.51,1.82a76.55,76.55,0,0,1-9.16,4c-.7.35-2.36.77-1.1,1.07s6.84-1.35,8.7-2.45a18.55,18.55,0,0,1,4.48-1.89c1.42-.45,5.45-.52,9.81,0s10.16.9,11.63.16,2.05-1,2.05-1Z" style="fill:#fff;opacity:0.30000000000000004"></path><g style="opacity:0.8"><path d="M156.64,178.27l-.06,0-.17.09a7.4,7.4,0,0,1-.67.35c-.58.29-1.44.69-2.53,1.11a31.06,31.06,0,0,1-3.92,1.19,31.4,31.4,0,0,1-5,.72,58.11,58.11,0,0,1-9.1-.23l-2.75-.28-.74-.09-.2,0h.2l.75.06,2.75.24a62.41,62.41,0,0,0,9.08.2,32.51,32.51,0,0,0,4.95-.72,30.84,30.84,0,0,0,3.92-1.15c1.09-.41,1.95-.79,2.54-1.07.3-.13.52-.25.68-.32l.17-.08Z" style="fill:#fff"></path></g><g style="opacity:0.8"><path d="M161.3,177.56s-.74.08-1.63.2-1.62.28-1.63.24a6.39,6.39,0,0,1,1.61-.37A5.77,5.77,0,0,1,161.3,177.56Z" style="fill:#fff"></path></g><g style="opacity:0.8"><path d="M177.09,178.41s-2.88-.15-6.42-.43-6.42-.52-6.42-.56,2.88.15,6.43.43S177.09,178.37,177.09,178.41Z" style="fill:#fff"></path></g><g style="opacity:0.8"><path d="M133.5,191.12a1.48,1.48,0,0,1-.12-.29c-.07-.19-.17-.46-.28-.81-.23-.68-.53-1.63-.83-2.68s-.56-2-.73-2.72c-.09-.35-.15-.64-.19-.83a1.43,1.43,0,0,1,0-.31,2.74,2.74,0,0,1,.1.29l.23.82.77,2.71c.3,1,.58,2,.79,2.7q.13.48.24.81A1.77,1.77,0,0,1,133.5,191.12Z" style="fill:#fff"></path></g><path d="M185.13,177.64a4.55,4.55,0,0,0-2.95-2c-1.19-.31-2.43-.38-3.63-.67-2.29-.55-4.32-1.91-6.58-2.58-5.21-1.54-10.65.55-15.62,2.75-3.29.46-5.68-.76-8.87-1.71s-6.66-1.75-9.8-.62c-2.36.84-4.39,2.72-6.89,2.84-1.72.08-3.71-.63-5,.51-1.09,1-.93,2.8-.1,4,1.26,1.83,3.61,2.58,5.82,2.8s4.48,0,6.65.57c5.12,1.24,8.73,6.17,13.86,7.39,3.92.93,8-.49,11.65-2.22s7.23-3.83,11.23-4.35c1.61-.22,3.25-.17,4.86-.37a7.7,7.7,0,0,0,4.42-1.85A3.9,3.9,0,0,0,185.13,177.64Z" style="fill:#1D4ED8"></path><g style="opacity:0.8"><path d="M185.13,177.64a4.55,4.55,0,0,0-2.95-2c-1.19-.31-2.43-.38-3.63-.67-2.29-.55-4.32-1.91-6.58-2.58-5.21-1.54-10.65.55-15.62,2.75-3.29.46-5.68-.76-8.87-1.71s-6.66-1.75-9.8-.62c-2.36.84-4.39,2.72-6.89,2.84-1.72.08-3.71-.63-5,.51-1.09,1-.93,2.8-.1,4,1.26,1.83,3.61,2.58,5.82,2.8s4.48,0,6.65.57c5.12,1.24,8.73,6.17,13.86,7.39,3.92.93,8-.49,11.65-2.22s7.23-3.83,11.23-4.35c1.61-.22,3.25-.17,4.86-.37a7.7,7.7,0,0,0,4.42-1.85A3.9,3.9,0,0,0,185.13,177.64Z" style="fill:#fff"></path></g><path d="M165,181a11.37,11.37,0,0,0-20-.19,1.88,1.88,0,0,0,.67,2.53c5.36,3.19,12.62,3.83,18.19,1.15a2.85,2.85,0,0,0,1.55-1.36A2.72,2.72,0,0,0,165,181Z" style="fill:#1D4ED8"></path><g style="opacity:0.30000000000000004"><path d="M161.32,182.24a3.62,3.62,0,0,0-1.33.2,12.36,12.36,0,0,1-8.46-.81c-.64-.31-1.33-.82-1.31-1.52a2.5,2.5,0,0,1,.37-1,1.38,1.38,0,0,0,.2-1c-.1-.33-.55-.56-.81-.33a10.43,10.43,0,0,0-2.55,2.09,2.31,2.31,0,0,0-.49,2.47,2.86,2.86,0,0,0,1.37,1.17c2.57,1.29,5.56,1.38,8.44,1.44,1.66,0,3.45,0,4.83-.89a1.28,1.28,0,0,0,.67-1A1,1,0,0,0,161.32,182.24Z" style="fill:#fff"></path></g><g style="opacity:0.8"><path d="M157.85,189.13c-.59,1.67-7.11.56-10-1.34-2.33-1.52-4.11-3.85-6.65-5-2.26-1-4.83-1-7.29-1.2s-5.74-.47-7.21-2.46c0,0-.64-.51.55-.61s.53,1,4,1.6,6.21-1.54,12.78,3.72,9.09,5.13,10.46,5S158.14,188.33,157.85,189.13Z" style="fill:#fff"></path></g><g style="opacity:0.8"><path d="M127.56,176.42a3,3,0,0,0-1,.41,3,3,0,0,0-.7.83s0-.14.09-.32a1.72,1.72,0,0,1,.53-.62,1.76,1.76,0,0,1,.75-.31A.67.67,0,0,1,127.56,176.42Z" style="fill:#fff"></path></g><g style="opacity:0.8"><path d="M140.08,173.42a8.71,8.71,0,0,0-1.41,0,5.68,5.68,0,0,0-1.48.31,6.62,6.62,0,0,0-1.63.9,18.11,18.11,0,0,1-1.55,1.07,4.19,4.19,0,0,1-1.44.55,2.53,2.53,0,0,1-1,0l-.27-.08-.08,0s.13,0,.37.08a2.66,2.66,0,0,0,1,0,4.54,4.54,0,0,0,1.4-.57c.49-.29,1-.68,1.53-1.07a6.35,6.35,0,0,1,1.67-.9,5.5,5.5,0,0,1,1.52-.3,4.87,4.87,0,0,1,1,.06l.28.06Z" style="fill:#fff"></path></g><g style="opacity:0.8"><path d="M173.93,178.22s-.2,0-.56.1a6.88,6.88,0,0,0-1.49.48,10.91,10.91,0,0,0-2,1.19c-.7.52-1.42,1.16-2.18,1.83a18.73,18.73,0,0,1-4.28,2.92,9.15,9.15,0,0,1-1.48.53c-.18,0-.32.07-.42.09l-.15,0a4,4,0,0,1,.56-.16,8.93,8.93,0,0,0,1.45-.57,19.2,19.2,0,0,0,4.23-2.94,27.77,27.77,0,0,1,2.2-1.82,10.41,10.41,0,0,1,2-1.18,6.21,6.21,0,0,1,1.52-.44c.18,0,.33,0,.42,0Z" style="fill:#fff"></path></g><g style="opacity:0.8"><path d="M182.88,181.51a3.88,3.88,0,0,0,.61-.44,2.49,2.49,0,0,0,.78-1.55,2.52,2.52,0,0,0-.48-1.67,4.94,4.94,0,0,0-.51-.54s.07,0,.18.1a1.91,1.91,0,0,1,.4.38,2.44,2.44,0,0,1,.55,1.74,2.53,2.53,0,0,1-.86,1.62,2,2,0,0,1-.47.3C183,181.5,182.89,181.52,182.88,181.51Z" style="fill:#fff"></path></g><g style="opacity:0.8"><path d="M144.57,174.68a9.14,9.14,0,0,0-6.15-1,4.58,4.58,0,0,0-3.32,2.11c-.19.37.49.55.81.47a4.08,4.08,0,0,0,.93-.62,6.57,6.57,0,0,1,4.91-.81,10.61,10.61,0,0,0,2.57.58c.26,0,.58-.12.57-.37S144.72,174.76,144.57,174.68Z" style="fill:#fff"></path></g><g style="opacity:0.8"><path d="M154,175.59l-.41.07-.49.09c-.18.05-.4.08-.63.15a7.86,7.86,0,0,0-.76.23c-.27.09-.54.21-.84.33a11.79,11.79,0,0,0-1.82,1,13.69,13.69,0,0,0-1.6,1.31c-.22.23-.44.44-.62.66a6.3,6.3,0,0,0-.49.62,4.88,4.88,0,0,0-.38.53c-.11.16-.19.3-.26.41a2.39,2.39,0,0,1-.23.36,3.06,3.06,0,0,1,.18-.38,3.54,3.54,0,0,1,.25-.43,5.65,5.65,0,0,1,.36-.55,7.8,7.8,0,0,1,.49-.63,9.1,9.1,0,0,1,.61-.68,11.75,11.75,0,0,1,1.62-1.33,11.59,11.59,0,0,1,1.84-1c.3-.12.58-.24.86-.32s.53-.15.77-.21a4.54,4.54,0,0,1,.64-.13,3.82,3.82,0,0,1,.49-.07Z" style="fill:#fff"></path></g><g style="opacity:0.8"><path d="M156.54,175.72a3.55,3.55,0,0,1-.65-.05,2.46,2.46,0,0,1-.65-.07,1.09,1.09,0,0,1,.66-.06A1.12,1.12,0,0,1,156.54,175.72Z" style="fill:#fff"></path></g><path d="M132.23,178.74l.09-4.84a.65.65,0,0,1,.52-.64,29.15,29.15,0,0,0,5.45-1.69c2.3-1.1,5.05-2.71,7-3.51,2.17-.88,8-3.67,9.13-4.05a.59.59,0,0,1,.35,0l22.1,4.74.11,0c.36,0,2.39.13,2.51,1.1s0,4.11-.08,5.28a.65.65,0,0,1-.41.58c-2,.84-11.46,4.8-13.8,7.2-2.63,2.69-5.71,5-6.93,5s-5.58-1.54-6.87-1.94-16-5.64-18.75-6.64A.67.67,0,0,1,132.23,178.74Z" style="fill:#ffbe9d"></path><path d="M179.51,169.85s-7.26,3.31-10.49,4.7a21.72,21.72,0,0,0-6.92,5.15c-1.37,1.43-2.06,2.39-4.33,2.45s-9.16-2.69-12.72-4.13-10.7-3.89-12.37-4.47a.27.27,0,0,0-.36.25l0,.92-.08,4.49s17.92,6.39,19.2,6.8,5.66,2,6.87,1.94,4.3-2.35,6.93-5,14.19-7.36,14.19-7.36S179.65,170.92,179.51,169.85Z" style="fill:#eb996e"></path><path d="M145.09,169.87c-.37,0-.63.3-.56.53s.46.41.83.39.69-.25.67-.48-.37-.45-.75-.45" style="fill:#eb996e"></path><path d="M167.38,172.58c-.37,0-.63.3-.56.53s.45.41.83.39.68-.25.66-.48-.37-.45-.75-.45" style="fill:#eb996e"></path><path d="M167.5,171.55c-.21,0-.36.17-.32.31a.47.47,0,0,0,.48.22c.22,0,.39-.14.38-.28s-.21-.26-.43-.26" style="fill:#eb996e"></path><path d="M162.85,175.55c-.21,0-.36.17-.32.3s.26.24.48.23.4-.15.38-.28-.21-.26-.43-.26" style="fill:#eb996e"></path><path d="M143.13,170.51c-.22,0-.37.17-.33.31a.48.48,0,0,0,.48.22c.22,0,.4-.14.39-.28s-.22-.25-.44-.26" style="fill:#eb996e"></path><path d="M132.68,173.55l.13,0,.37.12,1.43.48c1.25.43,3,1.05,5.26,1.84,1.1.39,2.31.83,3.61,1.32s2.65,1.05,4.1,1.61,3,1.15,4.56,1.7c.8.28,1.62.55,2.45.8a17.09,17.09,0,0,0,2.57.58,1.84,1.84,0,0,0,.33,0c.11,0,.22,0,.33,0l.33,0,.33,0a3.83,3.83,0,0,0,1.24-.35,6.79,6.79,0,0,0,2-1.61,29.83,29.83,0,0,1,3.57-3.33,17.83,17.83,0,0,1,3.79-2.25l3.51-1.56,5.09-2.26,1.38-.6.37-.16.12-.05-.12.07-.35.16-1.38.63L172.59,173l-3.5,1.58a18,18,0,0,0-3.77,2.25,32.11,32.11,0,0,0-3.55,3.32,7,7,0,0,1-2,1.65,4.36,4.36,0,0,1-1.28.36l-.34,0h-.67c-.12,0-.23,0-.34,0a18.21,18.21,0,0,1-2.6-.59c-.84-.25-1.65-.52-2.45-.8-1.6-.55-3.12-1.14-4.57-1.71s-2.8-1.14-4.09-1.63-2.5-.93-3.61-1.33l-5.23-1.88-1.43-.5-.37-.14Z" style="fill:#263238"></path><g style="opacity:0.30000000000000004"><path d="M161.46,166.55a22,22,0,0,0-7.6-.73,21.43,21.43,0,0,0-7,2.71c-2.42,1.3-4.83,2.65-7.21,4a.83.83,0,0,0-.24,1.21h0c1.42,1.25,3.2,1,4.94.28s3.27-2.27,4.84-3.51,3.5-2.32,5.48-2a22.94,22.94,0,0,1,2.92,1,13.72,13.72,0,0,0,3.33.47l5.95.33a1,1,0,0,0,.55-1.82A19.65,19.65,0,0,0,161.46,166.55Z" style="fill:#fff"></path></g></g><g id="freepik--Donut--inject-96"><path d="M146.94,110.24a18.42,18.42,0,0,0-2.23-8.49,17.59,17.59,0,0,0-5-5A26.34,26.34,0,0,0,132.4,93a23.16,23.16,0,0,0-22.18,4.93A21,21,0,0,0,104,117.24L104,117c0,.16.07.31.1.46s0,.17,0,.25c1.11,5,2.75,9,6.81,12.31,2.68,2.19,6.17,3.22,9.62,3.87,5.3,1,11.69-.84,16.51-3.19,4-2,6.4-3.59,8.06-7.64A29,29,0,0,0,146.94,110.24Z" style="fill:#ffbe9d"></path><path d="M146.54,107.75c.35,2.83-1.31,5.55-2.35,8.21-.67,1.72-1.45,3.58-3.06,4.49-1.18.67-2.66.74-3.75,1.55-.89.67-1.4,1.75-2.31,2.4-2.17,1.53-5.38-.09-7.76,1.09a14.45,14.45,0,0,0-2,1.43,2.81,2.81,0,0,1-2.27.62c-.93-.25-1.48-1.21-2.31-1.7-1-.63-2.33-.46-3.54-.49a10.22,10.22,0,0,1-9-6.26s-1.94,2.4-2.92,1.46a5.45,5.45,0,0,1-1.32-2.47l.05.22A22,22,0,0,1,132.4,93a25.74,25.74,0,0,1,7.35,3.91,17.94,17.94,0,0,1,5,5.24A15.37,15.37,0,0,1,146.54,107.75Z" style="fill:#1D4ED8"></path><g style="opacity:0.30000000000000004"><path d="M142.55,104.24a5.91,5.91,0,0,0-1.06-2.11,20.35,20.35,0,0,0-10.61-7.58c-4.24-1.27-8.46-.6-12.6,1a1.91,1.91,0,0,0-1.36,2.32,2.94,2.94,0,0,0,2.1,2,6.26,6.26,0,0,0,3,0c1-.2,2-.5,3-.61a10.88,10.88,0,0,1,6.76,1.87,49.48,49.48,0,0,1,5.58,4.45,6.84,6.84,0,0,0,2.24,1.41,2.49,2.49,0,0,0,2.48-.45A2.44,2.44,0,0,0,142.55,104.24Z" style="fill:#fff"></path></g><g style="opacity:0.30000000000000004"><path d="M127.34,114h0c-1.93-.54-3.9.48-5.71,1.35s-4,1.61-5.73.61c-1.57-.91-2.45-3.11-4.27-3.18a2.65,2.65,0,0,0-2.47,2.08,5,5,0,0,0,.58,3.38,9,9,0,0,0,9.34,4.58c1.74-.32,3.36-1.15,5.11-1.32,1.56-.15,3.36.16,4.49-.91a5.63,5.63,0,0,0,2.16-3.33C131.13,115.87,130.49,114.58,127.34,114Z" style="fill:#fff"></path></g><g style="opacity:0.30000000000000004"><path d="M137,114.18a2.51,2.51,0,0,0-2.62-1.41h-.07a2.08,2.08,0,0,0-1.2,3,2.15,2.15,0,0,0,2.65,1A2.23,2.23,0,0,0,137,114.18Z" style="fill:#fff"></path></g><g style="opacity:0.30000000000000004"><path d="M119.47,113a12,12,0,0,1,11.21-.66,9.92,9.92,0,0,1,5.25-2.84,11.6,11.6,0,0,0-18.27-3.07c-1.12,1.06-2.07,2.64-1.53,4.09.47,1.24,1.84,1.86,3.07,2.34"></path></g><path d="M139.21,109.65a12.89,12.89,0,0,0-2.69-.16,7.8,7.8,0,0,0-2.8.86,23.89,23.89,0,0,0-3.1,2l-.08.06-.1,0c-.49-.18-1-.35-1.55-.49a12.68,12.68,0,0,0-4.23-.33,14.13,14.13,0,0,0-3.39.78c-1.87.7-2.91,1.4-3,1.34a3.68,3.68,0,0,1,.72-.51,13.4,13.4,0,0,1,2.14-1.08,13,13,0,0,1,3.45-.88,12.37,12.37,0,0,1,4.35.32,13,13,0,0,1,1.6.5l-.18,0a22,22,0,0,1,3.18-2,7.56,7.56,0,0,1,2.93-.8,7.21,7.21,0,0,1,2,.17A3.58,3.58,0,0,1,139.21,109.65Z" style="fill:#263238"></path><path d="M135.88,109.11a15.47,15.47,0,0,0-2.49-2.86,11.81,11.81,0,0,0-3.51-2.08,11,11,0,0,0-4.9-.67,11.81,11.81,0,0,0-4.74,1.5,11.23,11.23,0,0,0-3.11,2.62,6.8,6.8,0,0,0-1.3,2.41c-.17.63-.17,1-.2,1s0-.09,0-.27a3.76,3.76,0,0,1,.09-.76,6.38,6.38,0,0,1,1.23-2.54,11.09,11.09,0,0,1,3.14-2.76,11.81,11.81,0,0,1,4.88-1.58,11.15,11.15,0,0,1,5.07.73,11.65,11.65,0,0,1,3.56,2.2,11.18,11.18,0,0,1,1.83,2.15,6,6,0,0,1,.38.66C135.86,109,135.89,109.1,135.88,109.11Z" style="fill:#263238"></path><path d="M107.8,117.22a5.38,5.38,0,0,1-.14-.9,21.76,21.76,0,0,1-.12-2.48,27.18,27.18,0,0,1,.26-3.68,28.7,28.7,0,0,1,2.66-8.61,27.16,27.16,0,0,1,1.86-3.18,20.14,20.14,0,0,1,1.5-2,4.46,4.46,0,0,1,.62-.67c.06,0-.78,1-1.9,2.79a32,32,0,0,0-1.76,3.2,31.5,31.5,0,0,0-1.63,4.15,33.91,33.91,0,0,0-1,4.35,31.66,31.66,0,0,0-.34,3.63C107.74,115.92,107.87,117.21,107.8,117.22Z" style="fill:#fff"></path><path d="M113.55,124a10.18,10.18,0,0,1-.37-1.22,12.34,12.34,0,0,1-.34-1.46c-.11-.58-.26-1.23-.33-2a23.72,23.72,0,0,1-.22-2.4c-.07-.87-.05-1.8,0-2.77a36.84,36.84,0,0,1,.82-6.29,35,35,0,0,1,2-6c.42-.88.8-1.73,1.24-2.48s.85-1.44,1.25-2.06.81-1.14,1.16-1.61a12.42,12.42,0,0,1,1-1.17,7.22,7.22,0,0,1,.87-.93,8,8,0,0,1-.76,1,13.6,13.6,0,0,0-.89,1.19c-.33.48-.73,1-1.1,1.64s-.81,1.3-1.2,2.07-.8,1.58-1.21,2.46a38.56,38.56,0,0,0-2,6,37,37,0,0,0-.84,6.21c0,1-.06,1.88,0,2.74s.1,1.66.17,2.39.19,1.37.28,2a14.17,14.17,0,0,0,.27,1.47A6.53,6.53,0,0,1,113.55,124Z" style="fill:#fff"></path><path d="M121.6,126.13a7.06,7.06,0,0,1-.8-1.77,18.36,18.36,0,0,1-1-4.6,18.81,18.81,0,0,1,.21-4.69,6.9,6.9,0,0,1,.5-1.87,16.29,16.29,0,0,1-.23,1.91,22.55,22.55,0,0,0-.1,4.62,23.58,23.58,0,0,0,.84,4.54C121.38,125.41,121.65,126.1,121.6,126.13Z" style="fill:#fff"></path><path d="M124.33,101.22A14.47,14.47,0,0,1,127.69,93c.09.07-1.07,1.72-2,4S124.45,101.24,124.33,101.22Z" style="fill:#fff"></path><path d="M132,103.86a10.28,10.28,0,0,1,.24-4.1,10,10,0,0,1,1.5-3.81c.11,0-.66,1.71-1.13,3.89S132.14,103.86,132,103.86Z" style="fill:#fff"></path><path d="M131.08,124.27a4.22,4.22,0,0,1-.76-1.21,18.32,18.32,0,0,1-1.88-6.57,4.43,4.43,0,0,1,0-1.42c.12,0,.25,2.15,1,4.69S131.18,124.21,131.08,124.27Z" style="fill:#fff"></path><path d="M141,101.67a5.73,5.73,0,0,1-.28,1,15.25,15.25,0,0,0-.48,2.61,34.92,34.92,0,0,0-.09,4,40.75,40.75,0,0,1-.09,4.89,14.48,14.48,0,0,1-.48,2.51,9.34,9.34,0,0,1-.43,1.15,1.68,1.68,0,0,1-.41.51.86.86,0,0,1-.66.2,1.58,1.58,0,0,1-.95-.71c-.23-.28-.43-.57-.62-.84a14.93,14.93,0,0,1-1-1.61,13.07,13.07,0,0,1-1-2.52,3.27,3.27,0,0,1-.18-1,21.83,21.83,0,0,0,1.39,3.36,12.59,12.59,0,0,0,1,1.56c.19.26.39.54.62.81s.46.54.74.58.53-.22.7-.54a7.72,7.72,0,0,0,.39-1.09,13.51,13.51,0,0,0,.46-2.44,42.28,42.28,0,0,0,.12-4.84,30,30,0,0,1,.18-4,12,12,0,0,1,.6-2.63A4.67,4.67,0,0,1,141,101.67Z" style="fill:#fff"></path></g><g id="freepik--Burger--inject-96"><path d="M165.46,50.78a6.91,6.91,0,0,0-1.78,4.57,12.79,12.79,0,0,0,.88,5c1.48,3.58,6.62,6.21,10.39,6.89S186.56,70,196,67.35c7.15-2,12.32-5.15,12.27-12.24s-7.42-11-23.14-11.53C174.07,43.18,168.05,48,165.46,50.78Z" style="fill:#eb996e"></path><path d="M208.27,55.12a9.39,9.39,0,0,0-.24-2c-.13,2-1.81,3.63-3.76,4.74a46.56,46.56,0,0,1-10.55,4.44,48.92,48.92,0,0,1-11.05,1.49,28.77,28.77,0,0,1-11.6-2.4c-3.55-1.45-6.57-3.52-7.25-7.24a6.36,6.36,0,0,0-.12,1.24,12.92,12.92,0,0,0,.88,5c1.48,3.58,6.61,6.2,10.38,6.89s11.59,2.74,21,.11C203.15,65.36,208.32,62.21,208.27,55.12Z" style="opacity:0.2"></path><g style="opacity:0.30000000000000004"><path d="M203.71,50.5a11.74,11.74,0,0,0-5.23-3.23,21.56,21.56,0,0,0-12.07-.52L170.55,49a5.12,5.12,0,0,0,3,7.51A4.09,4.09,0,0,0,178.23,59a8.68,8.68,0,0,1,2.31-.61c.8,0,1.63.46,2.36.12.45-.21.72-.68,1.06-1.05a2.92,2.92,0,0,1,1.85-.93c1.62-.17,3.33,1,4.8.27a3,3,0,0,0,5-2,2.69,2.69,0,0,0,3.25-.38,8.19,8.19,0,0,0,3.25.67,2.75,2.75,0,0,0,2.54-1.84A3.26,3.26,0,0,0,203.71,50.5Z"></path></g><path d="M207.29,51.06a.68.68,0,0,1,.08.11l.22.35A3.29,3.29,0,0,1,208,53a4.12,4.12,0,0,1-.82,2.32,8.43,8.43,0,0,1-2.4,2.25c-1,.64-2.23,1.26-3.52,1.89s-2.71,1.23-4.22,1.79a39,39,0,0,1-4.86,1.44,45.13,45.13,0,0,1-5.38.83c-.93.09-1.85.16-2.75.21s-1.8.09-2.68.06a24.9,24.9,0,0,1-5-.71,32.69,32.69,0,0,1-4.38-1.37,23,23,0,0,1-3.62-1.69,11.34,11.34,0,0,1-2.58-2A8.05,8.05,0,0,1,164.34,56a7.64,7.64,0,0,1-.48-1.49l-.08-.41a1.11,1.11,0,0,0,0-.13l0,.13c0,.1.05.23.09.4A7.69,7.69,0,0,0,165.77,58a11.46,11.46,0,0,0,2.58,2A23.8,23.8,0,0,0,172,61.66,35.1,35.1,0,0,0,176.33,63a24.91,24.91,0,0,0,5,.7c.87,0,1.77,0,2.67-.06s1.82-.12,2.75-.21a44.79,44.79,0,0,0,5.36-.83A39.34,39.34,0,0,0,197,61.18c1.51-.55,2.92-1.16,4.22-1.77s2.48-1.24,3.52-1.87a8.45,8.45,0,0,0,2.39-2.22,4.24,4.24,0,0,0,.83-2.29,3.43,3.43,0,0,0-.35-1.5l-.21-.35Z" style="fill:#263238"></path><path d="M166.14,57.38l-.07-.06s-.11-.11-.18-.2a5,5,0,0,1-.55-.82,4.92,4.92,0,0,1-.58-3.15,4.88,4.88,0,0,1,1.55-2.81,5.11,5.11,0,0,1,.79-.59l.23-.13c.06,0,.09,0,.09,0a6.73,6.73,0,0,0-1,.81,5,5,0,0,0-1.49,2.77,5.1,5.1,0,0,0,.53,3.09A9,9,0,0,0,166.14,57.38Z" style="fill:#fff"></path><path d="M168.26,59.11a2.68,2.68,0,0,1-.68-.36,2.4,2.4,0,0,1-.6-.46,2.23,2.23,0,0,1,.67.36A2.31,2.31,0,0,1,168.26,59.11Z" style="fill:#fff"></path><path d="M184,37.05c2.7,1.93,4.48,2.09,6.75,3.27a13.81,13.81,0,0,0,8.68,1c1.39-.24,3-.67,4.1.17.24.18.44.41.68.6a5.82,5.82,0,0,0,1,.56,3.29,3.29,0,0,1,1.75,1.5c.3.73-.19,1.79-1,1.72.34.17.34.69.15,1s-.51.6-.66.95a2.5,2.5,0,0,0,.07,1.66,2.22,2.22,0,0,1,1.63,2.88,5.63,5.63,0,0,0-.31.77,7.31,7.31,0,0,0,0,.94,1.72,1.72,0,0,1-1.78,1.48,2.36,2.36,0,0,1-1.95,1.86.82.82,0,0,1-.54,1.54,2.33,2.33,0,0,1-2.24,2.87,4.35,4.35,0,0,1-2.06,2.3,2.29,2.29,0,0,1-1.42.56c-.85-.06-1.38-1-2.19-1.25-.35-.11-.74-.08-1.09-.17s-.72-.39-.7-.76a1,1,0,0,1-1.2.36,2.81,2.81,0,0,1-1-.91,2.72,2.72,0,0,1-4.91,2.3,1,1,0,0,1-1.24.37,3,3,0,0,1-1.12-.81c-.38.53-.87,1.12-1.52,1.09a2.13,2.13,0,0,0-.61,0c-.34.06-.52.41-.72.69a2.29,2.29,0,0,1-2,1,1.85,1.85,0,0,1-1.63-1.43,1.2,1.2,0,0,1-1.32.7,1.23,1.23,0,0,1-.94-1.17c-.62.3-1.34-.2-1.75-.76a4.76,4.76,0,0,1-.82-3.64.92.92,0,0,1-1.32.08,2.44,2.44,0,0,1-.68-1.31,1.63,1.63,0,0,1-1.72,1.16,2.14,2.14,0,0,1-1.61-1.43,6.17,6.17,0,0,1-.28-2.23,10.1,10.1,0,0,1,.47-3.84,10.14,10.14,0,0,1,1.16-1.95,24,24,0,0,1,2-2.66,35.19,35.19,0,0,1,6-4.57C178.26,42,181.1,40,182,37.68c.28-.73.3-1.47.42-1.58s1.6.95,1.6.95" style="fill:#455a64"></path><path d="M182.44,36.1l0,0,.12.07.47.3c.4.26,1,.65,1.68,1.15,1.41,1,3.3,2.41,5.52,3.8a19.28,19.28,0,0,0,3.25,1.71,14,14,0,0,0,2.9.79,12.11,12.11,0,0,0,2,.16H199l-.55,0a11.67,11.67,0,0,1-2-.13,14.05,14.05,0,0,1-2.92-.78,18.38,18.38,0,0,1-3.27-1.71c-2.23-1.39-4.12-2.83-5.51-3.83l-1.66-1.17-.46-.31-.12-.08Z" style="fill:#fff"></path><path d="M197.32,45.5h0l-.13,0-.48-.14c-.42-.13-1-.29-1.78-.49a16.08,16.08,0,0,1-2.6-.89A12.86,12.86,0,0,1,189.52,42c-1.84-1.51-3.5-2.88-4.72-3.87L183.38,37l-.39-.33-.09-.08s0,0,0,0l0,0,.11.08.39.31,1.45,1.16,4.74,3.84a12.6,12.6,0,0,0,2.74,1.91,16.86,16.86,0,0,0,2.58.91c.75.21,1.36.38,1.77.51l.48.16.12,0Z" style="fill:#fff"></path><path d="M197.93,55l-.06,0-.16-.1c-.13-.09-.34-.21-.59-.39a19.63,19.63,0,0,1-2.05-1.62c-.41-.37-.84-.79-1.28-1.27A20.1,20.1,0,0,1,192.45,50,22.05,22.05,0,0,1,190,45.9c-.37-.76-.71-1.5-1.11-2.18a18.33,18.33,0,0,0-1.28-1.89c-.88-1.16-1.76-2.14-2.5-2.95s-1.38-1.44-1.81-1.88l-.49-.51-.13-.13,0,0,0,0,.13.13.51.49c.44.44,1.07,1.07,1.83,1.87a38.46,38.46,0,0,1,2.53,2.93,18.5,18.5,0,0,1,1.28,1.9c.4.68.75,1.43,1.12,2.19a22.48,22.48,0,0,0,2.42,4c.44.58.89,1.1,1.32,1.58s.87.9,1.28,1.27a22.24,22.24,0,0,0,2,1.64l.58.4.16.11Z" style="fill:#fff"></path><path d="M188.86,58a.28.28,0,0,0,0-.06v-.18c0-.16,0-.39,0-.68,0-.6,0-1.46,0-2.52s0-2.33-.12-3.73c0-.71-.14-1.44-.25-2.19a22.43,22.43,0,0,0-.5-2.32c0-.19-.11-.39-.17-.58s-.11-.38-.18-.56c-.13-.37-.26-.74-.41-1.09-.3-.71-.64-1.36-1-2-.67-1.24-1.35-2.31-1.93-3.2s-1.08-1.6-1.42-2.08l-.39-.56-.1-.15s0,0,0,0l0,0,.11.14c.1.13.24.31.41.55.35.49.85,1.19,1.44,2.07s1.28,2,2,3.2a20.28,20.28,0,0,1,1,2c.16.35.29.72.42,1.09.07.19.13.38.19.58s.12.38.17.58a22.34,22.34,0,0,1,.49,2.32c.11.76.2,1.5.25,2.2.11,1.4.11,2.67.1,3.74s0,1.93-.07,2.52l0,.69,0,.17Z" style="fill:#fff"></path><path d="M178.65,60.05a.28.28,0,0,1,0-.06l0-.18c0-.16.09-.39.18-.69.16-.6.42-1.46.8-2.5s.84-2.28,1.3-3.67c.23-.69.45-1.43.64-2.2a20.19,20.19,0,0,0,.4-2.43,44.29,44.29,0,0,0,.22-4.75c0-1.46,0-2.78,0-3.89s.05-2,.1-2.63c0-.31,0-.54.06-.71l0-.18s0-.06,0-.06v.24c0,.17,0,.41-.05.72,0,.61,0,1.51-.06,2.62s0,2.43,0,3.89a42,42,0,0,1-.21,4.76,18.53,18.53,0,0,1-.41,2.44c-.18.78-.41,1.52-.64,2.21-.47,1.39-.95,2.62-1.33,3.66s-.66,1.89-.83,2.49c-.09.29-.14.53-.19.68l-.05.18A.32.32,0,0,1,178.65,60.05Z" style="fill:#fff"></path><path d="M181.4,57.09s0-.1,0-.28.08-.45.13-.78c.1-.65.2-1.55.25-2.56s.05-1.92,0-2.58v-.78a2.13,2.13,0,0,1,0-.29,1.11,1.11,0,0,1,0,.29c0,.18,0,.45,0,.78,0,.66,0,1.57,0,2.58a20.73,20.73,0,0,1-.28,2.58c-.06.32-.11.58-.16.76A1.08,1.08,0,0,1,181.4,57.09Z" style="fill:#fff"></path><path d="M174.35,54.76l.1-.14.29-.37c.13-.16.28-.36.45-.59s.38-.5.59-.8c.43-.59.91-1.31,1.44-2.13s1.06-1.73,1.61-2.7,1-1.92,1.46-2.79.79-1.66,1.08-2.34c.15-.33.28-.64.39-.91s.2-.5.28-.69l.17-.43.07-.15s0,.05-.05.15l-.16.45c-.06.19-.15.42-.26.69s-.23.58-.38.92c-.28.68-.64,1.47-1.06,2.35s-.91,1.82-1.45,2.8-1.1,1.89-1.63,2.7-1,1.54-1.46,2.12c-.21.3-.42.56-.6.79s-.33.43-.46.59l-.31.36Z" style="fill:#fff"></path><path d="M167.59,58.58a2.21,2.21,0,0,1-.16-.25,1,1,0,0,0-.08-.14l-.07-.18-.09-.2a1.55,1.55,0,0,1-.07-.23,4.8,4.8,0,0,1-.21-1.19,6.79,6.79,0,0,1,.07-1.47,7.86,7.86,0,0,1,.85-2.53c.08-.15.16-.28.23-.4l.2-.29.18-.23a1.17,1.17,0,0,1-.15.26,1.46,1.46,0,0,0-.18.29c-.07.12-.15.25-.22.4a8.57,8.57,0,0,0-.81,2.52,7.33,7.33,0,0,0-.09,1.45,6,6,0,0,0,.19,1.17A7.27,7.27,0,0,0,167.59,58.58Z" style="fill:#fff"></path><path d="M170.78,59.73a1.64,1.64,0,0,1-.27-.65,1.48,1.48,0,0,1,0-.7s.05.31.13.68S170.8,59.72,170.78,59.73Z" style="fill:#fff"></path><path d="M173.37,63.35s-.05,0-.12-.09A3.49,3.49,0,0,1,173,63a3.54,3.54,0,0,1-.31-.53,3.19,3.19,0,0,1-.24-.7,3.36,3.36,0,0,1-.08-.75,3.3,3.3,0,0,1,.07-.6,2.49,2.49,0,0,1,.12-.4l.06-.13s0,.2-.11.54a3.42,3.42,0,0,0-.05.59,4.93,4.93,0,0,0,.08.73,4.29,4.29,0,0,0,.23.69,3.11,3.11,0,0,0,.29.52C173.23,63.19,173.38,63.34,173.37,63.35Z" style="fill:#fff"></path><path d="M178.11,65.8a1.06,1.06,0,0,1-.48-.59,1.08,1.08,0,0,1,0-.76,3.32,3.32,0,0,0,.14.72A3.43,3.43,0,0,0,178.11,65.8Z" style="fill:#fff"></path><path d="M184.49,64s-.12-.07-.24-.25a2,2,0,0,1-.33-.77,2.06,2.06,0,0,1,0-.83,1,1,0,0,1,.12-.33s0,.13-.05.34a2,2,0,0,0,0,.8,2.21,2.21,0,0,0,.29.75C184.41,63.92,184.5,64,184.49,64Z" style="fill:#fff"></path><path d="M186.76,64.72s0,0-.09-.11a1.64,1.64,0,0,1-.2-.32,2,2,0,0,1-.2-.53,2.8,2.8,0,0,1,0-1.37,2.62,2.62,0,0,1,.18-.54,2.22,2.22,0,0,1,.18-.33l.09-.11s-.09.17-.21.47a2.72,2.72,0,0,0-.15.52,2.88,2.88,0,0,0-.06.67,3.42,3.42,0,0,0,.08.67,2.61,2.61,0,0,0,.18.52C186.66,64.55,186.77,64.71,186.76,64.72Z" style="fill:#fff"></path><g style="opacity:0.30000000000000004"><path d="M172.16,45.87c-.21.77-.47,1.48.21,1.9s1.48.6,2.16,1a1.92,1.92,0,0,1,1.09,1.94c-.1.46-.46.89-.31,1.34a4.8,4.8,0,0,0,1.48-2.39l1.7,1.26a2.61,2.61,0,0,1,.89.92c.61,1.3-1.06,2.81-.54,4.15a10.72,10.72,0,0,0,1.22-2.8c.88,1-.51,2.87.42,3.84.19-.91.34-1.83.46-2.76a40.35,40.35,0,0,0,3.17,4.3,2.54,2.54,0,0,0,1,.86c1,.35,2-.62,2.65-1.48l.42.95c.57-.39.41-1.28.72-1.89a2.64,2.64,0,0,1,1.35-1c1.88-.87,4-1.76,6-1a.83.83,0,0,1,.06-1.24,2.91,2.91,0,0,1,1.32-.5,11.51,11.51,0,0,0,5.94-3.66c1.58-1.76,2.59-4.86,1.94-6.78a12.2,12.2,0,0,0-3.29-.49c-1.69,0-13.36,1-13.36,1l-9.69-1.57Z"></path></g><path d="M205.32,52.71c.46-1,.42-5.57-.72-6.5-2.68-2.18-9.24-.43-15.1-1a45.86,45.86,0,0,0-16.79,1.57c-1.43.45-5.29-.26-6.27.43a15.08,15.08,0,0,0-.22,4.61A5.92,5.92,0,0,0,169.47,57,37.43,37.43,0,0,0,185,60.39c5.22,0,12.68-1.36,15.61-2.77A9.26,9.26,0,0,0,205.32,52.71Z" style="fill:#1D4ED8"></path><path d="M205.12,47.9c-.38-4.34-7.25-6.5-15.61-7.3a46.09,46.09,0,0,0-16.79,1.57c-3.3,1.06-5.42,2.72-6.28,5a5.52,5.52,0,0,0,3,5.18A38.48,38.48,0,0,0,185.17,56c5.22,0,12.53-1.6,15.46-3S205.23,49.08,205.12,47.9Z" style="fill:#1D4ED8"></path><path d="M188.85,41.88a39,39,0,0,1-3.94,5.58,39.25,39.25,0,0,1-4.41,5.22,39.33,39.33,0,0,1,3.94-5.59A38.73,38.73,0,0,1,188.85,41.88Z" style="opacity:0.30000000000000004"></path><path d="M195.1,42.33a35.88,35.88,0,0,1-3.79,5.32,36.37,36.37,0,0,1-4.27,5c-.13-.11,1.57-2.49,3.79-5.33S195,42.23,195.1,42.33Z" style="opacity:0.30000000000000004"></path><path d="M200.49,44.27a17.7,17.7,0,0,1-2.78,4.21,17.42,17.42,0,0,1-3.46,3.67,27.69,27.69,0,0,1,3-4C199,45.94,200.35,44.17,200.49,44.27Z" style="opacity:0.30000000000000004"></path><path d="M181.13,42.05a24.5,24.5,0,0,1-3.19,5.09A24.52,24.52,0,0,1,174,51.7c-.13-.11,1.48-2.26,3.43-4.91S181,42,181.13,42.05Z" style="opacity:0.30000000000000004"></path><path d="M174.7,43.44a12.38,12.38,0,0,1-1.93,2.81,12.33,12.33,0,0,1-2.22,2.6,8.16,8.16,0,0,1,1.74-3A8.26,8.26,0,0,1,174.7,43.44Z" style="opacity:0.30000000000000004"></path><path d="M175.45,53.73l-.12,0-.34-.09c-.3-.09-.73-.21-1.25-.38a18.93,18.93,0,0,1-1.81-.71,9.51,9.51,0,0,1-2-1.23,6.68,6.68,0,0,1-1.55-1.81,5.39,5.39,0,0,1-.66-1.82,4,4,0,0,1,0-1.31,2.35,2.35,0,0,1,.08-.35c0-.08,0-.12,0-.12s0,.17-.07.47a4.07,4.07,0,0,0,0,1.29,5.43,5.43,0,0,0,.68,1.78A6.58,6.58,0,0,0,170,51.19a10.29,10.29,0,0,0,2,1.23c.66.31,1.27.54,1.79.73l1.23.41.34.12Z" style="fill:#fff"></path><path d="M179.13,54a4.54,4.54,0,0,1-1,0,5,5,0,0,1-1-.09,4,4,0,0,1,1,0A4.41,4.41,0,0,1,179.13,54Z" style="fill:#fff"></path><path d="M169.58,55.93s-.08,0-.2-.1a4.1,4.1,0,0,1-.49-.34A6,6,0,0,1,167.6,54a5.78,5.78,0,0,1-.71-1.83,4.44,4.44,0,0,1-.08-.59.63.63,0,0,1,0-.22s.05.31.16.79a6.61,6.61,0,0,0,.74,1.79A6.18,6.18,0,0,0,169,55.42C169.32,55.75,169.59,55.91,169.58,55.93Z" style="fill:#fff"></path><path d="M207,43c-1.33-5.11-6.45-14.46-22.52-13.64-14.51.74-18.71,7.84-20.26,13.25-.93,3.24,1.47,7.67,4.36,9.4,4,2.4,9,2.94,13.48,3.23A52.88,52.88,0,0,0,200,53.48a10.35,10.35,0,0,0,7.24-6.67A9.84,9.84,0,0,0,207,43Z" style="fill:#eb996e"></path><path d="M178.11,38.22a1.58,1.58,0,0,0-1.19.89.58.58,0,0,0,.3.89c.3.11.7-.16.84-.52A1.5,1.5,0,0,0,178.11,38.22Z" style="opacity:0.30000000000000004"></path><path d="M170.76,39.76a1.6,1.6,0,0,0,1.46-.32.59.59,0,0,0,.09-.94.77.77,0,0,0-1,.13A1.52,1.52,0,0,0,170.76,39.76Z" style="opacity:0.30000000000000004"></path><path d="M179.65,34.36a1.57,1.57,0,0,0-1.49,0,.59.59,0,0,0-.29.9.77.77,0,0,0,1,.08A1.48,1.48,0,0,0,179.65,34.36Z" style="opacity:0.30000000000000004"></path><path d="M185.18,37.51a1.55,1.55,0,0,0-1-1.08.58.58,0,0,0-.85.4c-.08.31.24.67.62.78A1.49,1.49,0,0,0,185.18,37.51Z" style="opacity:0.30000000000000004"></path><path d="M181.7,41.34a1.58,1.58,0,0,0-.51,1.4.59.59,0,0,0,.75.58.78.78,0,0,0,.41-.91A1.46,1.46,0,0,0,181.7,41.34Z" style="opacity:0.30000000000000004"></path><path d="M188.74,38.72a1.58,1.58,0,0,0-.18,1.48.58.58,0,0,0,.85.4c.28-.13.36-.6.2-1A1.48,1.48,0,0,0,188.74,38.72Z" style="opacity:0.30000000000000004"></path><path d="M196.85,42.56a1.57,1.57,0,0,0-1.08-1,.59.59,0,0,0-.83.45c-.05.31.28.66.66.74A1.46,1.46,0,0,0,196.85,42.56Z" style="opacity:0.30000000000000004"></path><path d="M199.2,39a1.58,1.58,0,0,0-.36-1.44.58.58,0,0,0-.94-.07.75.75,0,0,0,.16,1A1.44,1.44,0,0,0,199.2,39Z" style="opacity:0.30000000000000004"></path><path d="M192.89,35a1.58,1.58,0,0,0,1.4.51.59.59,0,0,0,.58-.74.76.76,0,0,0-.9-.42A1.5,1.5,0,0,0,192.89,35Z" style="opacity:0.30000000000000004"></path><path d="M184.32,33.23a1.58,1.58,0,0,0,1.4.51.58.58,0,0,0,.58-.74c-.07-.31-.51-.49-.9-.42A1.5,1.5,0,0,0,184.32,33.23Z" style="opacity:0.30000000000000004"></path><path d="M178.11,37.7a1.58,1.58,0,0,0-1.19.89.58.58,0,0,0,.3.89c.3.11.7-.16.84-.52A1.5,1.5,0,0,0,178.11,37.7Z" style="fill:#fff"></path><path d="M170.76,39.24a1.6,1.6,0,0,0,1.46-.32.59.59,0,0,0,.09-.94.77.77,0,0,0-1,.13A1.52,1.52,0,0,0,170.76,39.24Z" style="fill:#fff"></path><path d="M179.65,33.84a1.57,1.57,0,0,0-1.49,0,.59.59,0,0,0-.29.9.77.77,0,0,0,1,.08A1.48,1.48,0,0,0,179.65,33.84Z" style="fill:#fff"></path><path d="M185.18,37a1.55,1.55,0,0,0-1-1.08.58.58,0,0,0-.85.4c-.07.31.24.67.62.78A1.49,1.49,0,0,0,185.18,37Z" style="fill:#fff"></path><path d="M181.7,40.82a1.58,1.58,0,0,0-.51,1.4.6.6,0,0,0,.75.58.78.78,0,0,0,.41-.9A1.47,1.47,0,0,0,181.7,40.82Z" style="fill:#fff"></path><path d="M188.75,38.2a1.57,1.57,0,0,0-.19,1.48.58.58,0,0,0,.85.4.77.77,0,0,0,.21-1A1.51,1.51,0,0,0,188.75,38.2Z" style="fill:#fff"></path><path d="M196.85,42a1.57,1.57,0,0,0-1.08-1,.59.59,0,0,0-.83.45c-.05.31.28.66.66.74A1.46,1.46,0,0,0,196.85,42Z" style="fill:#fff"></path><path d="M199.2,38.45a1.58,1.58,0,0,0-.36-1.44.58.58,0,0,0-.94-.07.75.75,0,0,0,.16,1A1.44,1.44,0,0,0,199.2,38.45Z" style="fill:#fff"></path><path d="M192.89,34.45a1.58,1.58,0,0,0,1.4.51.59.59,0,0,0,.58-.74.76.76,0,0,0-.9-.42A1.5,1.5,0,0,0,192.89,34.45Z" style="fill:#fff"></path><path d="M184.32,32.71a1.58,1.58,0,0,0,1.4.51.58.58,0,0,0,.58-.74c-.07-.31-.51-.49-.9-.42A1.5,1.5,0,0,0,184.32,32.71Z" style="fill:#fff"></path><path d="M195.19,54.65l-.09,0-.26,0c-.23,0-.57.09-1,.14-.87.12-2.15.26-3.72.37s-3.46.18-5.55.16c-1,0-2.14,0-3.27-.09s-2.31-.12-3.51-.28-2.36-.37-3.47-.62c-.55-.13-1.09-.26-1.62-.43a14.06,14.06,0,0,1-1.5-.56,16.57,16.57,0,0,1-2.62-1.4,9.24,9.24,0,0,1-2-1.64,10.33,10.33,0,0,1-1.92-3.2,9.43,9.43,0,0,1-.42-1.31s0,0,0,.09l.08.25c.07.22.18.54.34,1a10.87,10.87,0,0,0,1.94,3.16,9.32,9.32,0,0,0,2,1.61,17.78,17.78,0,0,0,2.61,1.39c.48.2,1,.39,1.5.55a16.5,16.5,0,0,0,1.61.42c1.11.25,2.26.47,3.46.62s2.36.22,3.49.28,2.23.09,3.27.1c2.09,0,4,0,5.54-.14s2.85-.23,3.73-.33l1-.11.26,0Z" style="fill:#263238"></path><path d="M200.71,50.25l-.33.16c-.21.1-.53.23-.93.38A20.35,20.35,0,0,1,193,52.06h-1l-.37,0,.37,0,1,0a24.3,24.3,0,0,0,3.27-.4,23.64,23.64,0,0,0,3.18-.86l.94-.34A1.5,1.5,0,0,1,200.71,50.25Z" style="fill:#263238"></path><g style="opacity:0.30000000000000004"><path d="M175.52,41.34a.68.68,0,0,1,.66.59.69.69,0,0,1-.56.69.67.67,0,0,1-.71-.53.65.65,0,0,1,.49-.73"></path></g><g style="opacity:0.30000000000000004"><path d="M175.51,35a.64.64,0,1,1-.61.75.66.66,0,0,1,.49-.73"></path></g><g style="opacity:0.30000000000000004"><path d="M200.22,40.51a1,1,0,1,1-.19,0"></path></g><g style="opacity:0.30000000000000004"><path d="M189.54,34.22a.52.52,0,0,1,.08,1,.53.53,0,0,1-.58-.43.54.54,0,0,1,.4-.6"></path></g><g style="opacity:0.30000000000000004"><path d="M177.22,43.17a.24.24,0,0,0-.1.34.21.21,0,0,0,.34,0c.06-.12-.11-.38-.24-.34"></path></g><path d="M172,33.59l-.1.07-.28.17-.44.28-.57.39c-.2.15-.43.32-.66.51s-.47.4-.72.63a15.56,15.56,0,0,0-1.5,1.6,16.81,16.81,0,0,0-1.24,1.82c-.16.29-.32.57-.45.84s-.25.52-.35.76-.18.45-.26.64-.13.35-.17.49l-.11.31c0,.07,0,.11-.05.11a1.13,1.13,0,0,0,0-.12l.09-.31c0-.14.09-.31.16-.5s.14-.42.24-.65.2-.5.34-.77.28-.56.44-.86a14.55,14.55,0,0,1,1.25-1.83,15.91,15.91,0,0,1,1.51-1.62c.26-.22.5-.44.74-.62s.46-.35.67-.5.41-.27.59-.38.32-.19.45-.26l.29-.15Z" style="fill:#fff"></path><path d="M174.34,32.54a2,2,0,0,1-.58.33c-.34.16-.62.26-.63.22a1.68,1.68,0,0,1,.58-.33A1.87,1.87,0,0,1,174.34,32.54Z" style="fill:#fff"></path></g><g id="freepik--Character--inject-96"><path d="M279.19,109.5c1.82-3,.85-7.22-1.64-9.74s-6.19-3.55-9.74-3.55a40.56,40.56,0,0,0-10.43,1.87,11.32,11.32,0,0,0-19.95,3.22,7.19,7.19,0,0,0-9.88,8l14.81,8,12.39,32.79a13.86,13.86,0,0,0,23-15.05,12,12,0,0,0,2.87-2.59,12.13,12.13,0,0,0,6.7-6.55C289.85,119.48,285.81,111.35,279.19,109.5Z" style="fill:#263238"></path><path d="M259,170.64c-.2-5-.35-8.51-.35-8.48S268.44,160,269.82,147c.69-6.47-.17-17-1.16-25.54-.88-7.72-6.5-17-14.17-15.74l-23.76,7.33c-2.33.37-3,2.39-2.88,4.74l-.14,1.11,3,36.89-.22,15.74c.55,7,7.71,13.16,14.75,13.24h0A13.57,13.57,0,0,0,259,170.64Z" style="fill:#cf8165"></path><path d="M265.83,132.88a1.66,1.66,0,0,1-1.51,1.75,1.58,1.58,0,0,1-1.78-1.41,1.66,1.66,0,0,1,1.51-1.75A1.59,1.59,0,0,1,265.83,132.88Z" style="fill:#263238"></path><path d="M266.32,128.35c-.2.23-1.5-.63-3.28-.54s-3,1.06-3.24.85.09-.49.64-.94a4.5,4.5,0,0,1,2.58-.94,4.37,4.37,0,0,1,2.62.7C266.21,127.87,266.41,128.25,266.32,128.35Z" style="fill:#263238"></path><path d="M249.73,133.61a1.64,1.64,0,0,1-1.51,1.75,1.57,1.57,0,0,1-1.78-1.4,1.65,1.65,0,0,1,1.51-1.75A1.58,1.58,0,0,1,249.73,133.61Z" style="fill:#263238"></path><path d="M249.3,128.89c-.19.22-1.5-.64-3.28-.54s-3,1.05-3.24.84.09-.49.64-.93a4.6,4.6,0,0,1,2.58-.95,4.37,4.37,0,0,1,2.62.7C249.19,128.41,249.4,128.79,249.3,128.89Z" style="fill:#263238"></path><path d="M256.32,141.16a11.78,11.78,0,0,1,2.87-.67c.45-.07.87-.18.93-.5a2.3,2.3,0,0,0-.37-1.33l-1.52-3.39c-2.12-4.83-3.68-8.82-3.49-8.9s2.08,3.76,4.2,8.6l1.46,3.41a2.61,2.61,0,0,1,.33,1.77,1.16,1.16,0,0,1-.71.71,3,3,0,0,1-.77.14A11.83,11.83,0,0,1,256.32,141.16Z" style="fill:#263238"></path><path d="M258.63,162.16a32.8,32.8,0,0,1-17.51-3.72s4.82,8.88,17.67,7Z" style="fill:#935643"></path><path d="M249.07,121.61c-.2.48-2,.19-4.07.37s-3.81.69-4.07.25c-.11-.21.19-.66.89-1.1a7.1,7.1,0,0,1,6.2-.47C248.78,121,249.15,121.39,249.07,121.61Z" style="fill:#263238"></path><path d="M266.1,121.82c-.35.42-1.82.08-3.56.15s-3.21.44-3.57,0c-.16-.2,0-.61.67-1a5.69,5.69,0,0,1,2.87-.81,5.59,5.59,0,0,1,2.89.66C266,121.21,266.26,121.61,266.1,121.82Z" style="fill:#263238"></path><path d="M237.46,105.6a8.84,8.84,0,0,0,10.84,8.21c2-.46,4.07-1.56,5.83-.59s2.05,3.71,3.71,5c2.37,1.86,5.9-.17,8.83.54,2.26.55,3.76,2.62,5.33,4.34s3.87,3.31,6.06,2.54a26.14,26.14,0,0,0-1.17-5.9,8.78,8.78,0,0,0-3.62-4.68c-.95-.56-2-.87-2.93-1.52-1.93-1.41-2.48-4-3.73-6A9.68,9.68,0,0,0,259,103c-2.55-.14-5.13.75-7.63.25-1.85-.37-3.51-1.48-5.38-1.74-3.64-.51-6.87,2.25-9.36,5" style="fill:#263238"></path><path d="M249.26,110.17c-1.64-.38-5-1.27-5.94-2.63a9.91,9.91,0,0,0-8.84-4.52,8.18,8.18,0,0,0-7,6.82,11.73,11.73,0,0,0-9.76,7,13.63,13.63,0,0,0,1,12.63,25.18,25.18,0,0,1,1.47,3.06,19.66,19.66,0,0,0-2.55,2.8c-3.57,5.45,3.27,8.82,3.27,8.82-.6,4,3,4.5,5.37,4.85s2.65,6.78,4.5,6.82l1.17-19.49a2.5,2.5,0,0,0,.83.29c4.38.77,4.53-7.73,3.45-10.1a25.19,25.19,0,0,0,4.12-4.79c1.11-1.83,1.93-6.7,1.57-8.86C243.43,112.86,250,110.34,249.26,110.17Z" style="fill:#263238"></path><path d="M232.4,137.43a3.77,3.77,0,0,0-5.67-2.93c-1.27.82-2.19,2.39-1.93,5.29.7,7.76,8.35,5.46,8.34,5.23S232.72,140.64,232.4,137.43Z" style="fill:#cf8165"></path><path d="M230.5,142.3s-.12.1-.34.23a1.34,1.34,0,0,1-1,.11c-.85-.22-1.65-1.46-1.82-2.86a4.54,4.54,0,0,1,.21-2,1.54,1.54,0,0,1,.92-1.12.68.68,0,0,1,.83.29c.12.21.09.37.13.38s.15-.15.06-.46a.82.82,0,0,0-.35-.46,1,1,0,0,0-.76-.13,1.91,1.91,0,0,0-1.3,1.33,4.58,4.58,0,0,0-.28,2.21c.19,1.55,1.13,2.94,2.28,3.17a1.45,1.45,0,0,0,1.21-.32C230.51,142.49,230.53,142.31,230.5,142.3Z" style="fill:#935643"></path><path d="M221.33,121.17a2.64,2.64,0,0,1-.34-.27,9.51,9.51,0,0,1-.84-.88,9.14,9.14,0,0,1-2-4,7.25,7.25,0,0,1,.09-3.13,6.48,6.48,0,0,1,1.82-3.11,5.12,5.12,0,0,1,3.72-1.39,4.75,4.75,0,0,1,3.79,1.92l-.37.18,0-.09a10.66,10.66,0,0,1,.43-8.1,7,7,0,0,1,5.32-3.84,5.71,5.71,0,0,1,4.27,1.33,4.53,4.53,0,0,1,.81.93,2.23,2.23,0,0,1,.2.38,7.43,7.43,0,0,0-1.11-1.19A5.67,5.67,0,0,0,233,98.71a6.76,6.76,0,0,0-5,3.74,10.36,10.36,0,0,0-.37,7.8l0,.08.36,1.21-.72-1a4.4,4.4,0,0,0-3.47-1.75,4.81,4.81,0,0,0-3.45,1.26,6.15,6.15,0,0,0-1.74,2.93,6.8,6.8,0,0,0-.13,3,9.3,9.3,0,0,0,1.82,4C220.91,120.75,221.36,121.14,221.33,121.17Z" style="fill:#263238"></path><path d="M226.41,144a4.88,4.88,0,0,0-.93.51,4.75,4.75,0,0,0-1.52,2.41,5.58,5.58,0,0,0-.26,2,4.63,4.63,0,0,0,.7,2.14,5.15,5.15,0,0,0,1.83,1.69,4.47,4.47,0,0,0,2.58.6,4.71,4.71,0,0,0,2.49-.94,4.55,4.55,0,0,0,1.49-2,5,5,0,0,0-.11-4.14,3.91,3.91,0,0,0-2.1-1.88,4.64,4.64,0,0,0-1-.2.84.84,0,0,1,.28,0,3.45,3.45,0,0,1,.79.14,4,4,0,0,1,2.2,1.89,5.22,5.22,0,0,1,.17,4.29,4.79,4.79,0,0,1-1.56,2.07,4.89,4.89,0,0,1-2.59,1,4.71,4.71,0,0,1-2.71-.62,5.37,5.37,0,0,1-1.89-1.77,4.55,4.55,0,0,1-.7-2.24,5.62,5.62,0,0,1,.28-2,4.74,4.74,0,0,1,1.62-2.43,3,3,0,0,1,.71-.37Z" style="fill:#455a64"></path><polygon points="225.43 435.94 229.45 470.71 244.69 468.39 245.72 434.12 225.43 435.94" style="fill:#cf8165"></polygon><path d="M244.74,461.5s-10.22,8.67-15.92,2.3l-1.13,3.39-4.48,23.88a3.14,3.14,0,0,0,2,3.62,2.91,2.91,0,0,0,3.09-.85c4.13-4.67,19.24-21.9,18.93-24l-.47-5.74a2.9,2.9,0,0,0-2-2.55Z" style="fill:#1D4ED8"></path><g style="opacity:0.6000000000000001"><path d="M225.74,494.81l21.35-27,.08,1.25c.21,1.35-.33,1.94-.9,2.86-1.69,2.73-6.46,8.91-17.89,21.93a2.92,2.92,0,0,1-2.64,1Z" style="fill:#fff"></path></g><g style="opacity:0.6000000000000001"><path d="M243.43,464.31a1.88,1.88,0,0,0-.33,2.44,1.71,1.71,0,0,0,2.36.35,2,2,0,0,0,.33-2.58,1.75,1.75,0,0,0-2.48-.09" style="fill:#fff"></path></g><path d="M231.5,481.38c-.16.09-.92-1.41-2.7-2.12s-3.32-.23-3.37-.41.32-.33,1-.47a4.49,4.49,0,0,1,2.63.27,4.66,4.66,0,0,1,2.06,1.68C231.49,480.91,231.57,481.35,231.5,481.38Z" style="fill:#263238"></path><path d="M229.7,485.5a21.79,21.79,0,0,0-2.65-1.09c-1.52-.36-2.79,0-2.85-.16s1.25-.88,3-.48S229.84,485.4,229.7,485.5Z" style="fill:#263238"></path><path d="M235,476c-.13.15-1.65-1.24-4-2s-4.35-.51-4.36-.71,2.06-.72,4.55.09S235.13,475.91,235,476Z" style="fill:#263238"></path><path d="M235,468.84c-.07.18-1.72-.38-3.8-.3s-3.7.71-3.78.53,1.52-1.13,3.76-1.19S235.09,468.7,235,468.84Z" style="fill:#263238"></path><path d="M230,468.56a2.53,2.53,0,0,1,.08-1.12,8.22,8.22,0,0,1,1.19-2.83,3.5,3.5,0,0,1,1.63-1.48,1.18,1.18,0,0,1,1.31.42,2,2,0,0,1,.3,1.39,4.23,4.23,0,0,1-4.09,3.54,4.83,4.83,0,0,1-4.47-3.12,1.8,1.8,0,0,1,.07-1.45,1.18,1.18,0,0,1,1.29-.49,4.12,4.12,0,0,1,1.79,1.22,8.65,8.65,0,0,1,1.71,2.52,2.44,2.44,0,0,1,.33,1.07,13.69,13.69,0,0,0-2.35-3.25,3.94,3.94,0,0,0-1.59-1,.62.62,0,0,0-.7.27,1.19,1.19,0,0,0,0,.95,4.34,4.34,0,0,0,3.91,2.66,3.68,3.68,0,0,0,3.52-3,1.45,1.45,0,0,0-.18-1,.62.62,0,0,0-.71-.25,3.08,3.08,0,0,0-1.4,1.23A11.48,11.48,0,0,0,230,468.56Z" style="fill:#263238"></path><path d="M285.79,463.34c-.35-.54-3.54-12.17-3.54-12.17L302,445.8l2.8,16.77Z" style="fill:#cf8165"></path><path d="M304.6,459.27l0,1.34s21.7,8.84,22,13.14l-42.9.32.49-15C290.59,462.12,297.27,462.42,304.6,459.27Z" style="fill:#1D4ED8"></path><g style="opacity:0.6000000000000001"><path d="M288.56,463.83a1.84,1.84,0,0,0-1.19,2.1,1.67,1.67,0,0,0,2,1.27A2,2,0,0,0,290.6,465a1.72,1.72,0,0,0-2.19-1.08" style="fill:#fff"></path></g><g style="opacity:0.6000000000000001"><path d="M283.7,474.07l.12-3.61,41.07,1s1.92.86,1.71,2.27Z" style="fill:#fff"></path></g><path d="M304.77,460.73c0,.22-1,.33-2.08,1s-1.57,1.65-1.76,1.56.11-1.36,1.36-2.2S304.81,460.53,304.77,460.73Z" style="fill:#263238"></path><path d="M309.28,462.65c.05.22-.86.6-1.56,1.53s-.91,1.93-1.11,1.92-.35-1.25.54-2.4S309.27,462.44,309.28,462.65Z" style="fill:#263238"></path><path d="M311.87,468.29c-.19,0-.49-1.05,0-2.26s1.51-1.69,1.6-1.51-.51.83-.93,1.83S312.08,468.27,311.87,468.29Z" style="fill:#263238"></path><path d="M275.32,259c.93.6,8,42.94,17.2,99.22,7.57,46.28,12,93.15,12,93.15l-21.23,4.14s-20-57.38-30.56-98.64c-9.76-38.06-14.52-64.71-14.52-64.71V264.26Z" style="fill:#263238"></path><path d="M210.93,243.37s-19.55,26.42-17.9,54c1,16.5,32.71,155.84,32.71,155.84l21-.59-5.58-153,2.24-36.09Z" style="fill:#263238"></path><path d="M243.62,292.11a29.66,29.66,0,0,1,.87-2.9,56.62,56.62,0,0,0,1.65-7.09,57.33,57.33,0,0,0,.71-7.26c.06-1.88,0-3,.11-3a2.35,2.35,0,0,1,.13.81c0,.52.09,1.29.1,2.23a43,43,0,0,1-2.38,14.47c-.31.88-.59,1.58-.81,2.06A2.48,2.48,0,0,1,243.62,292.11Z" style="fill:#455a64"></path><path d="M287.62,454.19a6.21,6.21,0,0,1-1.25-2.66,6.37,6.37,0,0,1-.36-2.93,15.38,15.38,0,0,1,.83,2.78A15,15,0,0,1,287.62,454.19Z" style="fill:#455a64"></path><path d="M294.86,452.75s-.09-.07-.17-.22v0c-.09-.46-.17-1.49-.39-2.66a24.37,24.37,0,0,1-.58-2.91,5.89,5.89,0,0,1,1.06,2.81,8.76,8.76,0,0,1,.11,2.76v0C294.9,452.64,294.9,452.74,294.86,452.75Z" style="fill:#455a64"></path><path d="M301.79,451.54c-.14,0-.07-1.51-.36-3.31s-.81-3.19-.68-3.25a8.82,8.82,0,0,1,1,6.56Z" style="fill:#455a64"></path><path d="M243,453c-.14-.06.29-1.36.38-3s-.14-3,0-3A7.1,7.1,0,0,1,243,453Z" style="fill:#455a64"></path><path d="M235.9,453.12a18.74,18.74,0,0,1-.42-6,9,9,0,0,1,.45,3A9.18,9.18,0,0,1,235.9,453.12Z" style="fill:#455a64"></path><path d="M230.34,453.05a10.42,10.42,0,0,1-1.25-5.91,17.43,17.43,0,0,1,.67,2.95A15.64,15.64,0,0,1,230.34,453.05Z" style="fill:#455a64"></path><path d="M257.65,145.09a3.7,3.7,0,0,0-3.5-1.46H254a2,2,0,0,0-1.69,1.26,2,2,0,0,0,.43,1.9,3.31,3.31,0,0,0,1.75,1,3.11,3.11,0,0,0,2.53-.38A1.84,1.84,0,0,0,257.65,145.09Z" style="fill:#935643"></path><path d="M258,147.77c-.07,0-.29-.33-.76-.81a5.25,5.25,0,0,0-2.16-1.32,5.1,5.1,0,0,0-2.53-.07c-.65.14-1,.32-1.08.25s.3-.36,1-.61a4.5,4.5,0,0,1,2.78-.07,4.55,4.55,0,0,1,2.29,1.58C257.94,147.3,258.05,147.74,258,147.77Z" style="fill:#263238"></path><path d="M230.51,166.29,216,169.65l-5.42,60.51-11.1,32s10.76,13.46,23.49,16.73c19.3,5,28.89,3,40.31.12,7.71-2,13.91-11.91,13.91-11.91l-5.08-29,6.08-61.25-19.32-8.52A12.18,12.18,0,0,1,247.36,179C235.91,179.9,230.51,166.29,230.51,166.29Z" style="fill:#1D4ED8"></path><g style="opacity:0.30000000000000004"><path d="M272.93,241c-4.19-6.25-8.91-12-13.07-18.3s-7.78-13.23-9.39-21c-.63-3-1-6.21-2.7-8.55a7.69,7.69,0,0,0-8.92-2.52c-3.09,1.12-5.6,3.82-7.52,6.86s-3.34,6.47-5,9.72c-4.87,9.6-11.67,17.62-18.4,25.54l.24,3.49c4.55,1.29,10.9,0,15-2.73s7.5-6.54,10.86-10.34c1.9-2.15,4.37-4.47,6.89-3.54,2.1.78,3.13,3.46,4.11,5.76,4.92,11.52,15,19.85,25.92,21.46a3,3,0,0,0,2.78-.59C275,244.9,274,242.51,272.93,241Z"></path></g><path d="M216,169.65s-12.26,3-16,12.91c-3,8-10.59,35.41-10.59,41.34s-.71,20.49,10.43,19.41,28.87-14.07,33.2-28.16c1.74-5.66,2.8-10.39,4-13.64a20.72,20.72,0,0,1,2.72-5.21l-9.58-7.63-16.17,14.74Z" style="fill:#1D4ED8"></path><path d="M245,198.38s1.24,26.09,9.17,39.39c3.09,5.17,16.53,19.56,25.52,12.19s9.52-18.33,10.6-26.42.35-41.5-12.07-46.68c-.91-.38-7.52,17.74-7.52,17.74l-1.44,14.92-13.12-16.36Z" style="fill:#1D4ED8"></path><path d="M206.39,241.44l.25-.13.73-.31c.65-.27,1.61-.66,2.8-1.26a46.4,46.4,0,0,0,9.42-6.11,49.76,49.76,0,0,0,5.5-5.48,47.62,47.62,0,0,0,5.06-7.32,43.9,43.9,0,0,0,3.79-9.06c1-3.27,1.59-6.8,2.89-10.24a19.64,19.64,0,0,1,2.82-5.22l0,.36-10.27-8,.33,0a113.49,113.49,0,0,1-18,16.36c-2.43,1.76-4.42,3.06-5.8,3.92-.68.43-1.22.75-1.59,1a3.28,3.28,0,0,1-.56.31,3.49,3.49,0,0,1,.52-.37l1.55-1c1.35-.91,3.31-2.24,5.7-4a118.78,118.78,0,0,0,17.86-16.44l.15-.17.18.13c3.23,2.51,6.69,5.18,10.29,8l.2.16-.16.21a19.88,19.88,0,0,0-2.74,5.08c-1.27,3.39-1.91,6.9-2.88,10.2a44.69,44.69,0,0,1-3.86,9.16,47.86,47.86,0,0,1-5.15,7.36,48.46,48.46,0,0,1-5.59,5.48,44.32,44.32,0,0,1-9.58,6c-1.2.57-2.18.93-2.84,1.17l-.76.26Z" style="fill:#263238"></path><path d="M213.24,187.24a60.1,60.1,0,0,1,.85,7.75,57.24,57.24,0,0,1,.32,7.79,59.14,59.14,0,0,1-.84-7.75A56.36,56.36,0,0,1,213.24,187.24Z" style="fill:#263238"></path><path d="M285.28,229.18s-.06,0-.17-.15l-.46-.48-1.75-1.91c-1.52-1.66-3.72-4.12-6.41-7.24-5.38-6.25-12.78-15.2-20.56-26.09l.31.08-11.57,5.29.13-.33c.2.55.4,1.11.57,1.7a2,2,0,0,1,.1.49l.06.46.1.92c.89,8.61,1.59,16.86,3.69,24.05a42.14,42.14,0,0,0,9.28,17.32,29.52,29.52,0,0,0,10.92,7.51,25.87,25.87,0,0,0,3.48,1.08l.93.2.31.09-.32,0L273,252a22.82,22.82,0,0,1-3.53-1,29.07,29.07,0,0,1-11.12-7.45,42.08,42.08,0,0,1-9.47-17.43c-2.14-7.25-2.86-15.54-3.75-24.13l-.1-.92,0-.46a1.44,1.44,0,0,0-.09-.4c-.16-.57-.36-1.13-.56-1.67l-.08-.22.22-.1L256,192.94l.19-.09.12.17c7.74,10.89,15.08,19.87,20.39,26.17,2.66,3.15,4.81,5.64,6.29,7.34.73.83,1.29,1.49,1.7,2l.43.51A1.1,1.1,0,0,1,285.28,229.18Z" style="fill:#263238"></path><path d="M270.94,195a58.4,58.4,0,0,1-.66,7.76,58.17,58.17,0,0,1-1.17,7.69,58.2,58.2,0,0,1,.66-7.75A56.59,56.59,0,0,1,270.94,195Z" style="fill:#263238"></path><path d="M272.46,215.37a4.66,4.66,0,0,1-.47,1c-.33.63-.83,1.53-1.51,2.62a31.17,31.17,0,0,1-6.43,7.63,18.63,18.63,0,0,1-9,4.18,13.11,13.11,0,0,1-3,.1,3.9,3.9,0,0,1-1.09-.2,25.61,25.61,0,0,0,4.07-.26,19.45,19.45,0,0,0,8.76-4.22,34.85,34.85,0,0,0,6.45-7.43C271.59,216.69,272.38,215.33,272.46,215.37Z" style="fill:#fff"></path><path d="M276.1,260a4.22,4.22,0,0,1-.67.43l-2,1.11-1.44.8c-.54.28-1.14.53-1.78.83a45.16,45.16,0,0,1-4.4,1.84l-2.61.94c-.91.32-1.89.55-2.89.84a62.78,62.78,0,0,1-6.48,1.47,75.12,75.12,0,0,1-15.17.94,76,76,0,0,1-15-2.38c-2.24-.69-4.38-1.28-6.3-2.09-1-.39-1.92-.71-2.8-1.11L212,262.43a44.25,44.25,0,0,1-4.21-2.26c-.6-.35-1.18-.66-1.68-1s-1-.65-1.36-.93l-1.87-1.3a4.05,4.05,0,0,1-.62-.49,7.48,7.48,0,0,1,.69.4l1.91,1.22,1.38.89c.51.31,1.09.61,1.7.95a45.23,45.23,0,0,0,4.22,2.18l2.51,1.15c.87.39,1.83.7,2.79,1.08a65.4,65.4,0,0,0,6.28,2,70.72,70.72,0,0,0,30,1.44c2.28-.45,4.46-.81,6.45-1.41,1-.29,2-.5,2.88-.81l2.61-.9c1.68-.53,3.11-1.23,4.4-1.77.64-.28,1.25-.52,1.79-.78s1-.53,1.46-.75l2-1A5.24,5.24,0,0,1,276.1,260Z" style="fill:#fff"></path><path d="M228.82,223.08a4.5,4.5,0,0,1-1-.38l-2.61-1.22c-2.19-1-5.2-2.52-8.51-4.2a24.09,24.09,0,0,1-4.43-2.85,11.82,11.82,0,0,1-2.75-3.33,7.88,7.88,0,0,1-.94-2.75,2.85,2.85,0,0,1,0-1.07,10.47,10.47,0,0,0,1.27,3.64,11.93,11.93,0,0,0,2.74,3.14,25.68,25.68,0,0,0,4.36,2.76c3.3,1.67,6.29,3.19,8.44,4.33,1.07.57,1.94,1,2.53,1.36A5,5,0,0,1,228.82,223.08Z" style="fill:#fff"></path><path d="M255,174s2.29,3,2,4.11-3,11.69-3,11.69l1.12,3.92-8.85,4.14s-3-3.17-3.29-6.29a16.32,16.32,0,0,1,1.35-6.86l-1.83-1.44s-2.33-6.67-2.33-7a23.84,23.84,0,0,1,1.35-2.8l7.8-1.25Z" style="fill:#cf8165"></path><path d="M255,174s-.14,0-.4-.08l-1.13-.31-4.22-1.23h.06l-7.79,1.31.15-.11c-.36.68-.73,1.39-1.07,2.13a4.06,4.06,0,0,0-.23.55,2.08,2.08,0,0,0,.13.49c.13.4.26.81.4,1.22.57,1.66,1.18,3.4,1.8,5.21l-.07-.11,1.82,1.44.15.12-.07.18a18.72,18.72,0,0,0-1.21,4.18,7.86,7.86,0,0,0,.37,4.42,14.73,14.73,0,0,0,2.74,4.27l-.3-.06,8.86-4.11-.13.27c-.39-1.36-.75-2.66-1.11-3.91v-.12c1.28-4.82,2.35-8.84,3.11-11.72a3.43,3.43,0,0,0-.52-1.76,13.91,13.91,0,0,0-.71-1.25c-.41-.66-.64-1-.63-1a1.31,1.31,0,0,1,.21.23q.19.24.54.72c.22.32.49.72.77,1.22a3.63,3.63,0,0,1,.59,1.91c-.68,2.86-1.7,6.9-2.93,11.78v-.12l1.13,3.91.06.2-.18.08L246.32,198l-.17.08L246,198a15.23,15.23,0,0,1-2.85-4.43,8.49,8.49,0,0,1-.39-4.69,19.67,19.67,0,0,1,1.26-4.3l.07.3-1.82-1.45-.06,0,0-.06c-.62-1.82-1.21-3.57-1.78-5.23l-.39-1.24a1.52,1.52,0,0,1-.12-.74,3.87,3.87,0,0,1,.25-.61c.36-.76.74-1.46,1.11-2.14l.05-.09.1,0,7.8-1.18h.07l4.21,1.38,1.1.37A1.42,1.42,0,0,1,255,174Z" style="fill:#935643"></path><path d="M231.18,189.41l1.45-2.88s-.73-11.72-.56-13a3.4,3.4,0,0,1,3.36-2.92l9.45-1.63a7,7,0,0,1,2.62-.08l10.32,4c.23,0,.17,1.58-.54,1.82a7.16,7.16,0,0,1-1.77.26c.14-.18-1.41,1.4-2.82,1.06s-5.2-1.57-5.2-1.57l-3.12.95-2.28,2.65s.93,10.86.31,13.67a9.55,9.55,0,0,1-2.57,4.57Z" style="fill:#cf8165"></path><path d="M231.18,189.41s.23.15.63.45l1.74,1.34,6.38,5h-.22a9.32,9.32,0,0,0,2.13-3.27,11.55,11.55,0,0,0,.56-4.4c0-3.18-.25-6.69-.56-10.41V178l.06-.07,2.28-2.66,0-.06.07,0,3.11-.95.08,0,.08,0,4,1.22,1,.31a1.7,1.7,0,0,0,1,0,3.44,3.44,0,0,0,.93-.4c.15-.09.29-.18.44-.29l.21-.16.1-.08.06-.05,0,0,.07,0c-.12-.06.42,0,.36.29,0,.12,0,.05,0,.08h0l0,0-.21-.42a7.88,7.88,0,0,0,1.35-.16,1.09,1.09,0,0,0,.46-.16.91.91,0,0,0,.24-.41,2,2,0,0,0,.11-.54,1.13,1.13,0,0,0,0-.26.25.25,0,0,0,0-.1s-.07,0,.15.07l-.08,0-5.9-2.27-2.85-1.1-1.39-.54a2.88,2.88,0,0,0-1.35-.14c-.95.07-1.9.27-2.83.42l-2.75.47-5.18.87h0a3.19,3.19,0,0,0-3.2,3.56c0,1.78.09,3.43.15,4.94.14,3,.25,5.41.33,7.18v0l-1.12,2.11-.29.54a1,1,0,0,1-.12.19,4.82,4.82,0,0,1,.32-.73c.25-.53.6-1.25,1-2.19v0c-.13-1.73-.3-4.16-.47-7.18-.08-1.5-.17-3.15-.21-5a3.61,3.61,0,0,1,3.58-4h0l5.17-.91,2.75-.48c.93-.15,1.87-.35,2.87-.43a3.37,3.37,0,0,1,1.56.16l1.4.54,2.86,1.09,5.9,2.26h-.08a.34.34,0,0,1,.19.07.24.24,0,0,1,.07.09.39.39,0,0,1,.06.14.79.79,0,0,1,0,.2,2,2,0,0,1,0,.35,3.17,3.17,0,0,1-.13.67,1.5,1.5,0,0,1-.4.63,1.47,1.47,0,0,1-.68.28,8.51,8.51,0,0,1-1.46.17l-.21-.42s.2.14.22.15a.31.31,0,0,0,.07.14s0,0,.06.07h0l0,0,0,0-.11.09-.23.17a5.72,5.72,0,0,1-.48.32,3.91,3.91,0,0,1-1.07.45,2.19,2.19,0,0,1-1.19,0l-1-.31-4.06-1.23h.15l-3.12.94.12-.08-2.29,2.65.06-.18c.29,3.75.5,7.25.49,10.46a11.88,11.88,0,0,1-.63,4.54,9.63,9.63,0,0,1-2.25,3.38l-.11.1-.11-.09-6.34-5.17-1.66-1.37A4.67,4.67,0,0,1,231.18,189.41Z" style="fill:#935643"></path><path d="M238.87,173.08a12.44,12.44,0,0,1,2.49-.79c.77-.21,1.7-.44,2.74-.68.52-.12,1.06-.25,1.64-.36a7.19,7.19,0,0,1,.93-.13,1.08,1.08,0,0,1,.19,0l.1,0,.22.08.43.16c2.3.85,4.37,1.65,5.86,2.25a13.64,13.64,0,0,1,2.38,1.08,13.05,13.05,0,0,1-2.51-.73c-1.52-.52-3.61-1.26-5.91-2.11l-.43-.16-.22-.08-.1,0h0a7.24,7.24,0,0,0-.81.12l-1.63.32-2.76.57A13.91,13.91,0,0,1,238.87,173.08Z" style="fill:#935643"></path><path d="M249.19,181.43a2.49,2.49,0,0,0,.05-1.11c-.15-.68-.92-1.29-1.91-1.84s-1.84-1.1-2.49-1.43-1.08-.51-1.06-.58.49,0,1.21.24A16.13,16.13,0,0,1,247.6,178a6.92,6.92,0,0,1,1.34,1,2.26,2.26,0,0,1,.66,1.25C249.71,181.1,249.21,181.5,249.19,181.43Z" style="fill:#935643"></path><path d="M252.84,179.87a10.49,10.49,0,0,0-1.11-2.63c-.9-1.31-2.18-1.77-2.12-1.92s.37,0,.88.2a4.4,4.4,0,0,1,1.67,1.42,4.29,4.29,0,0,1,.78,2C253,179.53,252.9,179.87,252.84,179.87Z" style="fill:#935643"></path></g><g id="freepik--speech-bubble--inject-96"><circle cx="180.34" cy="101.11" r="20.27" transform="translate(41.9 254.66) rotate(-77.24)" style="fill:#fff"></circle><path d="M200.61,101.11a1.87,1.87,0,0,1,0-.33c0-.25,0-.56-.08-1a10.12,10.12,0,0,0-.18-1.55,15.91,15.91,0,0,0-.43-2.09,19.49,19.49,0,0,0-2.26-5.35,20.25,20.25,0,0,0-5.13-5.69A19.93,19.93,0,0,0,184,81.41a20.17,20.17,0,0,0-10.52.88A18.54,18.54,0,0,0,168.45,85,24.15,24.15,0,0,0,166.18,87a23.22,23.22,0,0,0-2,2.33,19.37,19.37,0,0,0-2.86,5.51,19.87,19.87,0,0,0,0,12.63,19.37,19.37,0,0,0,2.86,5.51,23.22,23.22,0,0,0,2,2.33,24.15,24.15,0,0,0,2.27,1.93,18.54,18.54,0,0,0,5.07,2.73,20.13,20.13,0,0,0,24.1-8.54,19.49,19.49,0,0,0,2.26-5.35,16.13,16.13,0,0,0,.43-2.08,10.37,10.37,0,0,0,.18-1.56c0-.4.06-.71.08-1a1.64,1.64,0,0,1,0-.32,1.57,1.57,0,0,1,0,.32c0,.25,0,.57,0,1a9.94,9.94,0,0,1-.14,1.57,13.12,13.12,0,0,1-.39,2.11,18.94,18.94,0,0,1-2.2,5.45,20.43,20.43,0,0,1-13.75,9.7,20.59,20.59,0,0,1-10.77-.86,21.09,21.09,0,0,1-7.52-4.76,23,23,0,0,1-2-2.37,20,20,0,0,1-2.94-5.66,20.31,20.31,0,0,1,0-13A20,20,0,0,1,163.81,89a23,23,0,0,1,2-2.37,21.78,21.78,0,0,1,2.33-2A21.5,21.5,0,0,1,170.68,83a23.25,23.25,0,0,1,2.67-1.17A20.59,20.59,0,0,1,184.12,81a20.43,20.43,0,0,1,13.75,9.7,18.94,18.94,0,0,1,2.2,5.45,13.12,13.12,0,0,1,.39,2.11,9.94,9.94,0,0,1,.14,1.57c0,.4,0,.72,0,1A1.72,1.72,0,0,1,200.61,101.11Z" style="fill:#263238"></path><path d="M175.49,97.85h2.43a2.08,2.08,0,0,1,2.13-2.09A2,2,0,0,1,182,97a2.2,2.2,0,0,1-.17,2,2.65,2.65,0,0,1-3,1v5.49h2.4v-3.22a4.7,4.7,0,0,0,3.38-4.59,4.37,4.37,0,0,0-4.56-4.39C179,93.3,175.44,93.55,175.49,97.85Z" style="fill:#263238"></path><rect x="178.82" y="106.63" width="2.44" height="2.28" style="fill:#263238"></rect><path d="M208.32,113.85a3.3,3.3,0,1,1-3.3-3.3A3.29,3.29,0,0,1,208.32,113.85Z" style="fill:#fff"></path><path d="M208.32,113.85a5.37,5.37,0,0,1-.2-.78,3.33,3.33,0,0,0-1.22-1.7A3.11,3.11,0,0,0,204,111a3.06,3.06,0,0,0,0,5.74,3.14,3.14,0,0,0,2.92-.4,3.35,3.35,0,0,0,1.22-1.69c.14-.49.15-.79.2-.78a1.53,1.53,0,0,1,0,.82,3.23,3.23,0,0,1-1.18,1.94,3.46,3.46,0,0,1-3.31.56,3.53,3.53,0,0,1,0-6.65,3.46,3.46,0,0,1,3.31.56,3.23,3.23,0,0,1,1.18,1.94A1.59,1.59,0,0,1,208.32,113.85Z" style="fill:#263238"></path></g></svg>